<svg width="148" height="124" viewBox="0 0 148 124" fill="none" xmlns="http://www.w3.org/2000/svg">
<rect x="2.5" y="64.5" width="143" height="57" stroke="black" stroke-width="5"/>
<line x1="36.7313" y1="66.1998" x2="77.7313" y2="1.19975" stroke="black" stroke-width="3"/>
<line x1="75.2687" y1="1.19974" x2="116.269" y2="66.1997" stroke="black" stroke-width="3"/>
<path d="M60.8613 84.1582C60.7949 85.0762 60.4551 85.7988 59.8418 86.3262C59.2324 86.8535 58.4277 87.1172 57.4277 87.1172C56.334 87.1172 55.4727 86.75 54.8438 86.0156C54.2188 85.2773 53.9062 84.2656 53.9062 82.9805V82.459C53.9062 81.6387 54.0508 80.916 54.3398 80.291C54.6289 79.666 55.041 79.1875 55.5762 78.8555C56.1152 78.5195 56.7402 78.3516 57.4512 78.3516C58.4355 78.3516 59.2285 78.6152 59.8301 79.1426C60.4316 79.6699 60.7793 80.4102 60.873 81.3633H59.1152C59.0723 80.8125 58.918 80.4141 58.6523 80.168C58.3906 79.918 57.9902 79.793 57.4512 79.793C56.8652 79.793 56.4258 80.0039 56.1328 80.4258C55.8438 80.8438 55.6953 81.4941 55.6875 82.377V83.0215C55.6875 83.9434 55.8262 84.6172 56.1035 85.043C56.3848 85.4688 56.8262 85.6816 57.4277 85.6816C57.9707 85.6816 58.375 85.5586 58.6406 85.3125C58.9102 85.0625 59.0645 84.6777 59.1035 84.1582H60.8613ZM61.6406 83.7715C61.6406 83.1426 61.7617 82.582 62.0039 82.0898C62.2461 81.5977 62.5938 81.2168 63.0469 80.9473C63.5039 80.6777 64.0332 80.543 64.6348 80.543C65.4902 80.543 66.1875 80.8047 66.7266 81.3281C67.2695 81.8516 67.5723 82.5625 67.6348 83.4609L67.6465 83.8945C67.6465 84.8672 67.375 85.6484 66.832 86.2383C66.2891 86.8242 65.5605 87.1172 64.6465 87.1172C63.7324 87.1172 63.002 86.8242 62.4551 86.2383C61.9121 85.6523 61.6406 84.8555 61.6406 83.8477V83.7715ZM63.334 83.8945C63.334 84.4961 63.4473 84.957 63.6738 85.2773C63.9004 85.5938 64.2246 85.752 64.6465 85.752C65.0566 85.752 65.377 85.5957 65.6074 85.2832C65.8379 84.9668 65.9531 84.4629 65.9531 83.7715C65.9531 83.1816 65.8379 82.7246 65.6074 82.4004C65.377 82.0762 65.0527 81.9141 64.6348 81.9141C64.2207 81.9141 63.9004 82.0762 63.6738 82.4004C63.4473 82.7207 63.334 83.2188 63.334 83.8945ZM70.2773 80.6602L70.3301 81.3691C70.7793 80.8184 71.3867 80.543 72.1523 80.543C72.9688 80.543 73.5293 80.8652 73.834 81.5098C74.2793 80.8652 74.9141 80.543 75.7383 80.543C76.4258 80.543 76.9375 80.7441 77.2734 81.1465C77.6094 81.5449 77.7773 82.1465 77.7773 82.9512V87H76.0781V82.957C76.0781 82.5977 76.0078 82.3359 75.8672 82.1719C75.7266 82.0039 75.4785 81.9199 75.123 81.9199C74.6152 81.9199 74.2637 82.1621 74.0684 82.6465L74.0742 87H72.3809V82.9629C72.3809 82.5957 72.3086 82.3301 72.1641 82.166C72.0195 82.002 71.7734 81.9199 71.4258 81.9199C70.9453 81.9199 70.5977 82.1191 70.3828 82.5176V87H68.6895V80.6602H70.2773ZM80.6719 80.6602L80.7246 81.3691C81.1738 80.8184 81.7812 80.543 82.5469 80.543C83.3633 80.543 83.9238 80.8652 84.2285 81.5098C84.6738 80.8652 85.3086 80.543 86.1328 80.543C86.8203 80.543 87.332 80.7441 87.668 81.1465C88.0039 81.5449 88.1719 82.1465 88.1719 82.9512V87H86.4727V82.957C86.4727 82.5977 86.4023 82.3359 86.2617 82.1719C86.1211 82.0039 85.873 81.9199 85.5176 81.9199C85.0098 81.9199 84.6582 82.1621 84.4629 82.6465L84.4688 87H82.7754V82.9629C82.7754 82.5957 82.7031 82.3301 82.5586 82.166C82.4141 82.002 82.168 81.9199 81.8203 81.9199C81.3398 81.9199 80.9922 82.1191 80.7773 82.5176V87H79.084V80.6602H80.6719ZM91.2656 87H89.5664V80.6602H91.2656V87ZM89.4668 79.0195C89.4668 78.7656 89.5508 78.5566 89.7188 78.3926C89.8906 78.2285 90.123 78.1465 90.416 78.1465C90.7051 78.1465 90.9355 78.2285 91.1074 78.3926C91.2793 78.5566 91.3652 78.7656 91.3652 79.0195C91.3652 79.2773 91.2773 79.4883 91.1016 79.6523C90.9297 79.8164 90.7012 79.8984 90.416 79.8984C90.1309 79.8984 89.9004 79.8164 89.7246 79.6523C89.5527 79.4883 89.4668 79.2773 89.4668 79.0195ZM94.2246 80.6602L94.2773 81.3926C94.7305 80.8262 95.3379 80.543 96.0996 80.543C96.7715 80.543 97.2715 80.7402 97.5996 81.1348C97.9277 81.5293 98.0957 82.1191 98.1035 82.9043V87H96.4102V82.9453C96.4102 82.5859 96.332 82.3262 96.1758 82.166C96.0195 82.002 95.7598 81.9199 95.3965 81.9199C94.9199 81.9199 94.5625 82.123 94.3242 82.5293V87H92.6309V80.6602H94.2246ZM99.1465 83.7832C99.1465 82.8105 99.377 82.0273 99.8379 81.4336C100.303 80.8398 100.928 80.543 101.713 80.543C102.408 80.543 102.949 80.7812 103.336 81.2578L103.406 80.6602H104.941V86.7891C104.941 87.3438 104.814 87.8262 104.561 88.2363C104.311 88.6465 103.957 88.959 103.5 89.1738C103.043 89.3887 102.508 89.4961 101.895 89.4961C101.43 89.4961 100.977 89.4023 100.535 89.2148C100.094 89.0312 99.7598 88.793 99.5332 88.5L100.283 87.4688C100.705 87.9414 101.217 88.1777 101.818 88.1777C102.268 88.1777 102.617 88.0566 102.867 87.8145C103.117 87.5762 103.242 87.2363 103.242 86.7949V86.4551C102.852 86.8965 102.338 87.1172 101.701 87.1172C100.939 87.1172 100.322 86.8203 99.8496 86.2266C99.3809 85.6289 99.1465 84.8379 99.1465 83.8535V83.7832ZM100.84 83.9062C100.84 84.4805 100.955 84.9316 101.186 85.2598C101.416 85.584 101.732 85.7461 102.135 85.7461C102.65 85.7461 103.02 85.5527 103.242 85.166V82.5C103.016 82.1133 102.65 81.9199 102.146 81.9199C101.74 81.9199 101.42 82.0859 101.186 82.418C100.955 82.75 100.84 83.2461 100.84 83.9062ZM70.8457 98.7617C70.8457 98.4297 70.7285 98.1758 70.4941 98C70.2598 97.8203 69.8379 97.6328 69.2285 97.4375C68.6191 97.2383 68.1367 97.043 67.7812 96.8516C66.8125 96.3281 66.3281 95.623 66.3281 94.7363C66.3281 94.2754 66.457 93.8652 66.7148 93.5059C66.9766 93.1426 67.3496 92.8594 67.834 92.6562C68.3223 92.4531 68.8691 92.3516 69.4746 92.3516C70.084 92.3516 70.627 92.4629 71.1035 92.6855C71.5801 92.9043 71.9492 93.2148 72.2109 93.6172C72.4766 94.0195 72.6094 94.4766 72.6094 94.9883H70.8516C70.8516 94.5977 70.7285 94.2949 70.4824 94.0801C70.2363 93.8613 69.8906 93.752 69.4453 93.752C69.0156 93.752 68.6816 93.8438 68.4434 94.0273C68.2051 94.207 68.0859 94.4453 68.0859 94.7422C68.0859 95.0195 68.2246 95.252 68.502 95.4395C68.7832 95.627 69.1953 95.8027 69.7383 95.9668C70.7383 96.2676 71.4668 96.6406 71.9238 97.0859C72.3809 97.5312 72.6094 98.0859 72.6094 98.75C72.6094 99.4883 72.3301 100.068 71.7715 100.49C71.2129 100.908 70.4609 101.117 69.5156 101.117C68.8594 101.117 68.2617 100.998 67.7227 100.76C67.1836 100.518 66.7715 100.188 66.4863 99.7695C66.2051 99.3516 66.0645 98.8672 66.0645 98.3164H67.8281C67.8281 99.2578 68.3906 99.7285 69.5156 99.7285C69.9336 99.7285 70.2598 99.6445 70.4941 99.4766C70.7285 99.3047 70.8457 99.0664 70.8457 98.7617ZM73.4297 97.7715C73.4297 97.1426 73.5508 96.582 73.793 96.0898C74.0352 95.5977 74.3828 95.2168 74.8359 94.9473C75.293 94.6777 75.8223 94.543 76.4238 94.543C77.2793 94.543 77.9766 94.8047 78.5156 95.3281C79.0586 95.8516 79.3613 96.5625 79.4238 97.4609L79.4355 97.8945C79.4355 98.8672 79.1641 99.6484 78.6211 100.238C78.0781 100.824 77.3496 101.117 76.4355 101.117C75.5215 101.117 74.791 100.824 74.2441 100.238C73.7012 99.6523 73.4297 98.8555 73.4297 97.8477V97.7715ZM75.123 97.8945C75.123 98.4961 75.2363 98.957 75.4629 99.2773C75.6895 99.5938 76.0137 99.752 76.4355 99.752C76.8457 99.752 77.166 99.5957 77.3965 99.2832C77.627 98.9668 77.7422 98.4629 77.7422 97.7715C77.7422 97.1816 77.627 96.7246 77.3965 96.4004C77.166 96.0762 76.8418 95.9141 76.4238 95.9141C76.0098 95.9141 75.6895 96.0762 75.4629 96.4004C75.2363 96.7207 75.123 97.2188 75.123 97.8945ZM80.2148 97.7715C80.2148 97.1426 80.3359 96.582 80.5781 96.0898C80.8203 95.5977 81.168 95.2168 81.6211 94.9473C82.0781 94.6777 82.6074 94.543 83.209 94.543C84.0645 94.543 84.7617 94.8047 85.3008 95.3281C85.8438 95.8516 86.1465 96.5625 86.209 97.4609L86.2207 97.8945C86.2207 98.8672 85.9492 99.6484 85.4062 100.238C84.8633 100.824 84.1348 101.117 83.2207 101.117C82.3066 101.117 81.5762 100.824 81.0293 100.238C80.4863 99.6523 80.2148 98.8555 80.2148 97.8477V97.7715ZM81.9082 97.8945C81.9082 98.4961 82.0215 98.957 82.248 99.2773C82.4746 99.5938 82.7988 99.752 83.2207 99.752C83.6309 99.752 83.9512 99.5957 84.1816 99.2832C84.4121 98.9668 84.5273 98.4629 84.5273 97.7715C84.5273 97.1816 84.4121 96.7246 84.1816 96.4004C83.9512 96.0762 83.627 95.9141 83.209 95.9141C82.7949 95.9141 82.4746 96.0762 82.248 96.4004C82.0215 96.7207 81.9082 97.2188 81.9082 97.8945ZM88.8223 94.6602L88.875 95.3926C89.3281 94.8262 89.9355 94.543 90.6973 94.543C91.3691 94.543 91.8691 94.7402 92.1973 95.1348C92.5254 95.5293 92.6934 96.1191 92.7012 96.9043V101H91.0078V96.9453C91.0078 96.5859 90.9297 96.3262 90.7734 96.166C90.6172 96.002 90.3574 95.9199 89.9941 95.9199C89.5176 95.9199 89.1602 96.123 88.9219 96.5293V101H87.2285V94.6602H88.8223Z" fill="black"/>
</svg>
