<?xml version="1.0" standalone="no"?>
<!DOCTYPE svg PUBLIC "-//W3C//DTD SVG 20010904//EN"
 "http://www.w3.org/TR/2001/REC-SVG-20010904/DTD/svg10.dtd">
<svg version="1.0" xmlns="http://www.w3.org/2000/svg"
 width="256.000000pt" height="256.000000pt" viewBox="0 0 256.000000 256.000000"
 preserveAspectRatio="xMidYMid meet">

<g transform="translate(0.000000,256.000000) scale(0.100000,-0.100000)"
fill="#000000" stroke="none">
<path d="M1740 2544 c-189 -40 -368 -180 -454 -356 -99 -199 -100 -397 -5
-595 l39 -83 -30 -121 c-17 -67 -29 -123 -27 -126 3 -2 59 10 126 27 l121 30
83 -39 c198 -95 396 -94 595 5 164 80 293 235 346 414 9 30 19 98 22 150 8
125 -12 217 -72 338 -134 272 -444 421 -744 356z m312 -163 c161 -56 279 -176
334 -341 13 -39 19 -84 19 -155 0 -152 -47 -267 -150 -370 -105 -105 -218
-150 -375 -149 -118 0 -180 18 -279 81 -46 30 -59 33 -93 28 l-40 -7 7 40 c5
34 2 47 -28 93 -63 99 -81 161 -81 279 -1 77 4 120 18 160 64 190 219 326 416
364 51 10 196 -3 252 -23z"/>
<path d="M1810 2185 l0 -75 75 0 75 0 0 75 0 75 -75 0 -75 0 0 -75z"/>
<path d="M1810 1735 l0 -225 75 0 75 0 0 225 0 225 -75 0 -75 0 0 -225z"/>
<path d="M662 2092 c-102 -37 -172 -117 -194 -225 -30 -143 54 -290 193 -337
55 -19 55 -24 -5 -34 -69 -13 -149 -58 -211 -121 -71 -70 -110 -146 -127 -246
l-12 -69 -153 0 -153 0 0 -75 0 -75 80 0 80 0 0 -455 0 -455 75 0 75 0 0 75 0
75 750 0 750 0 0 -75 0 -75 75 0 75 0 0 455 0 455 75 0 75 0 0 75 0 75 -448 0
-448 0 -12 69 c-17 100 -56 176 -127 247 -64 64 -143 109 -214 120 -53 8 -60
20 -18 28 49 9 122 59 157 107 83 115 75 274 -19 382 -72 82 -213 117 -319 79z
m168 -152 c45 -23 80 -80 80 -131 0 -73 -76 -149 -150 -149 -76 0 -150 74
-150 150 0 48 35 107 78 129 48 26 93 26 142 1z m64 -614 c87 -43 146 -124
162 -224 l7 -42 -302 0 c-341 0 -314 -8 -286 87 53 177 251 261 419 179z m916
-721 l0 -305 -750 0 -750 0 0 305 0 305 750 0 750 0 0 -305z"/>
</g>
</svg>
