<?xml version="1.0" standalone="no"?>
<!DOCTYPE svg PUBLIC "-//W3C//DTD SVG 20010904//EN"
 "http://www.w3.org/TR/2001/REC-SVG-20010904/DTD/svg10.dtd">
<svg version="1.0" xmlns="http://www.w3.org/2000/svg"
 width="300.000000pt" height="110.000000pt" viewBox="0 0 300.000000 110.000000"
 preserveAspectRatio="xMidYMid meet">

<g transform="translate(0.000000,110.000000) scale(0.100000,-0.100000)"
fill="#000000" stroke="none">
<path d="M700 1043 c-66 -10 -171 -57 -226 -101 -186 -149 -244 -401 -141
-612 177 -361 687 -376 886 -26 48 85 64 155 59 271 -3 97 -6 107 -46 188
-101 204 -313 315 -532 280z m270 -109 c31 -14 80 -49 112 -81 151 -149 171
-383 48 -555 -77 -108 -187 -168 -321 -176 -62 -3 -83 0 -115 16 -112 58 -153
175 -100 289 37 79 85 105 237 128 85 13 169 118 169 212 0 60 -43 136 -98
174 -42 28 -44 31 -17 25 17 -4 55 -18 85 -32z m-126 -109 c57 -53 19 -145
-62 -145 -51 0 -86 36 -85 86 2 77 89 113 147 59z"/>
<path d="M735 428 c-53 -29 -73 -108 -39 -157 42 -60 138 -58 174 2 31 50 26
93 -14 133 -36 36 -81 44 -121 22z"/>
<path d="M1863 773 c-18 -7 -16 -20 6 -67 11 -23 23 -52 26 -66 5 -23 3 -25
-26 -25 -27 0 -39 -8 -65 -43 -67 -87 -52 -188 26 -173 41 8 92 84 110 166 12
51 -6 148 -36 192 -15 23 -19 25 -41 16z m37 -210 c-1 -56 -66 -163 -90 -148
-24 15 -3 76 47 143 29 39 43 41 43 5z"/>
<path d="M1455 724 c-76 -39 -125 -124 -125 -216 0 -49 4 -62 28 -87 46 -51
73 -50 131 4 63 59 66 77 5 30 -51 -39 -78 -44 -94 -16 -36 69 26 237 101 277
27 14 33 14 46 2 12 -12 11 -18 -7 -40 -18 -23 -18 -27 -4 -39 14 -11 19 -10
35 10 54 67 -29 121 -116 75z"/>
<path d="M2310 707 l0 -33 98 4 97 4 -30 -23 c-150 -114 -275 -243 -275 -282
0 -25 17 -29 52 -11 22 12 66 19 135 22 l103 5 -6 26 c-9 38 -17 42 -50 32
-34 -11 -134 -21 -134 -13 0 3 19 29 41 59 43 55 135 130 201 164 64 33 48 64
-32 64 -30 0 -88 3 -127 8 l-73 7 0 -33z"/>
<path d="M2777 609 c-46 -70 -75 -173 -57 -199 9 -13 15 -9 38 20 78 100 115
126 92 64 -22 -56 9 -96 53 -72 19 11 20 13 5 16 -25 5 -22 34 7 93 14 27 23
54 20 59 -15 24 -51 6 -108 -52 l-61 -63 33 59 c33 59 33 59 13 79 -20 19 -20
19 -35 -4z"/>
<path d="M1625 593 c-55 -55 -71 -137 -34 -174 14 -14 27 -18 42 -14 89 26
143 147 86 194 -33 28 -61 26 -94 -6z m85 -44 c0 -41 -27 -97 -56 -116 -62
-40 -55 55 9 125 29 31 47 28 47 -9z"/>
<path d="M2005 586 c-61 -65 -69 -139 -19 -173 24 -16 28 -15 61 2 19 10 39
27 44 37 8 14 2 12 -27 -7 -42 -29 -58 -28 -62 3 -3 16 6 26 37 42 49 25 74
59 69 97 -2 24 -8 28 -36 31 -27 3 -39 -3 -67 -32z m75 -18 c0 -14 -60 -78
-72 -78 -11 0 9 39 35 68 23 24 37 28 37 10z"/>
<path d="M2590 582 c-80 -80 -57 -208 30 -172 28 11 81 60 66 60 -5 0 -21 -11
-38 -25 -34 -29 -53 -32 -62 -9 -10 26 -7 31 23 44 59 24 105 96 81 125 -22
26 -60 17 -100 -23z m65 -31 c-14 -29 -55 -65 -63 -57 -12 12 44 86 65 86 11
0 11 -5 -2 -29z"/>
</g>
</svg>
