<svg xmlns="http://www.w3.org/2000/svg" version="1.1" xmlns:xlink="http://www.w3.org/1999/xlink" xmlns:svgjs="http://svgjs.com/svgjs" width="1460" height="750" preserveAspectRatio="none" viewBox="0 0 1460 750"><g mask="url(&quot;#SvgjsMask1851&quot;)" fill="none"><rect width="1460" height="750" x="0" y="0" fill="rgba(2, 28, 255, 1)"></rect><path d="M-64.76 549.24L-64.76 549.24" stroke="rgba(0, 0, 0, 1)" stroke-width="1.5"></path><path d="M-64.76 549.24L-76.63 675.24" stroke="rgba(0, 0, 0, 1)" stroke-width="1.5"></path><path d="M-64.76 549.24L74.74 534.87" stroke="rgba(0, 0, 0, 1)" stroke-width="1.5"></path><path d="M-64.76 549.24L80.2 660.67" stroke="rgba(0, 0, 0, 1)" stroke-width="1.5"></path><path d="M-64.76 549.24L-62.39 794.9" stroke="rgba(0, 0, 0, 1)" stroke-width="1.5"></path><path d="M-64.76 549.24L57.67 788.42" stroke="rgba(0, 0, 0, 1)" stroke-width="1.5"></path><path d="M-76.63 675.24L-76.63 675.24" stroke="rgba(0, 0, 0, 1)" stroke-width="1.5"></path><path d="M-76.63 675.24L-62.39 794.9" stroke="rgba(0, 0, 0, 1)" stroke-width="1.5"></path><path d="M-76.63 675.24L80.2 660.67" stroke="rgba(0, 0, 0, 1)" stroke-width="1.5"></path><path d="M-76.63 675.24L57.67 788.42" stroke="rgba(0, 0, 0, 1)" stroke-width="1.5"></path><path d="M-76.63 675.24L74.74 534.87" stroke="rgba(0, 0, 0, 1)" stroke-width="1.5"></path><path d="M-76.63 675.24L231.05 650.32" stroke="rgba(0, 0, 0, 1)" stroke-width="1.5"></path><path d="M-62.39 794.9L-62.39 794.9" stroke="rgba(0, 0, 0, 1)" stroke-width="1.5"></path><path d="M-62.39 794.9L57.67 788.42" stroke="rgba(0, 0, 0, 1)" stroke-width="1.5"></path><path d="M74.74 534.87L74.74 534.87" stroke="rgba(0, 0, 0, 1)" stroke-width="1.5"></path><path d="M74.74 534.87L80.2 660.67" stroke="rgba(0, 0, 0, 1)" stroke-width="1.5"></path><path d="M74.74 534.87L215.02 513.31" stroke="rgba(0, 0, 0, 1)" stroke-width="1.5"></path><path d="M74.74 534.87L231.05 650.32" stroke="rgba(0, 0, 0, 1)" stroke-width="1.5"></path><path d="M74.74 534.87L57.67 788.42" stroke="rgba(0, 0, 0, 1)" stroke-width="1.5"></path><path d="M80.2 660.67L80.2 660.67" stroke="rgba(0, 0, 0, 1)" stroke-width="1.5"></path><path d="M80.2 660.67L57.67 788.42" stroke="rgba(0, 0, 0, 1)" stroke-width="1.5"></path><path d="M57.67 788.42L57.67 788.42" stroke="rgba(0, 0, 0, 1)" stroke-width="1.5"></path><path d="M57.67 788.42L212.12 840.54" stroke="rgba(0, 0, 0, 1)" stroke-width="1.5"></path><path d="M215.02 513.31L215.02 513.31" stroke="rgba(0, 0, 0, 1)" stroke-width="1.5"></path><path d="M215.02 513.31L231.05 650.32" stroke="rgba(0, 0, 0, 1)" stroke-width="1.5"></path><path d="M215.02 513.31L399.18 510.81" stroke="rgba(0, 0, 0, 1)" stroke-width="1.5"></path><path d="M215.02 513.31L80.2 660.67" stroke="rgba(0, 0, 0, 1)" stroke-width="1.5"></path><path d="M215.02 513.31L369.7 705.05" stroke="rgba(0, 0, 0, 1)" stroke-width="1.5"></path><path d="M215.02 513.31L-64.76 549.24" stroke="rgba(0, 0, 0, 1)" stroke-width="1.5"></path><path d="M231.05 650.32L231.05 650.32" stroke="rgba(0, 0, 0, 1)" stroke-width="1.5"></path><path d="M231.05 650.32L369.7 705.05" stroke="rgba(0, 0, 0, 1)" stroke-width="1.5"></path><path d="M231.05 650.32L80.2 660.67" stroke="rgba(0, 0, 0, 1)" stroke-width="1.5"></path><path d="M212.12 840.54L212.12 840.54" stroke="rgba(0, 0, 0, 1)" stroke-width="1.5"></path><path d="M212.12 840.54L362.13 802.51" stroke="rgba(0, 0, 0, 1)" stroke-width="1.5"></path><path d="M399.18 510.81L399.18 510.81" stroke="rgba(0, 0, 0, 1)" stroke-width="1.5"></path><path d="M399.18 510.81L497.79 391.55" stroke="rgba(0, 0, 0, 1)" stroke-width="1.5"></path><path d="M399.18 510.81L554.9 551.4" stroke="rgba(0, 0, 0, 1)" stroke-width="1.5"></path><path d="M399.18 510.81L369.7 705.05" stroke="rgba(0, 0, 0, 1)" stroke-width="1.5"></path><path d="M399.18 510.81L231.05 650.32" stroke="rgba(0, 0, 0, 1)" stroke-width="1.5"></path><path d="M369.7 705.05L369.7 705.05" stroke="rgba(0, 0, 0, 1)" stroke-width="1.5"></path><path d="M369.7 705.05L362.13 802.51" stroke="rgba(0, 0, 0, 1)" stroke-width="1.5"></path><path d="M369.7 705.05L540.67 711.67" stroke="rgba(0, 0, 0, 1)" stroke-width="1.5"></path><path d="M369.7 705.05L495.08 852.93" stroke="rgba(0, 0, 0, 1)" stroke-width="1.5"></path><path d="M369.7 705.05L212.12 840.54" stroke="rgba(0, 0, 0, 1)" stroke-width="1.5"></path><path d="M362.13 802.51L362.13 802.51" stroke="rgba(0, 0, 0, 1)" stroke-width="1.5"></path><path d="M362.13 802.51L495.08 852.93" stroke="rgba(0, 0, 0, 1)" stroke-width="1.5"></path><path d="M497.79 391.55L497.79 391.55" stroke="rgba(0, 0, 0, 1)" stroke-width="1.5"></path><path d="M497.79 391.55L554.9 551.4" stroke="rgba(0, 0, 0, 1)" stroke-width="1.5"></path><path d="M497.79 391.55L710.69 398.42" stroke="rgba(0, 0, 0, 1)" stroke-width="1.5"></path><path d="M554.9 551.4L554.9 551.4" stroke="rgba(0, 0, 0, 1)" stroke-width="1.5"></path><path d="M554.9 551.4L540.67 711.67" stroke="rgba(0, 0, 0, 1)" stroke-width="1.5"></path><path d="M554.9 551.4L704.22 642.61" stroke="rgba(0, 0, 0, 1)" stroke-width="1.5"></path><path d="M554.9 551.4L710.69 398.42" stroke="rgba(0, 0, 0, 1)" stroke-width="1.5"></path><path d="M554.9 551.4L369.7 705.05" stroke="rgba(0, 0, 0, 1)" stroke-width="1.5"></path><path d="M540.67 711.67L540.67 711.67" stroke="rgba(0, 0, 0, 1)" stroke-width="1.5"></path><path d="M540.67 711.67L495.08 852.93" stroke="rgba(0, 0, 0, 1)" stroke-width="1.5"></path><path d="M495.08 852.93L495.08 852.93" stroke="rgba(0, 0, 0, 1)" stroke-width="1.5"></path><path d="M495.08 852.93L679.37 861.65" stroke="rgba(0, 0, 0, 1)" stroke-width="1.5"></path><path d="M495.08 852.93L212.12 840.54" stroke="rgba(0, 0, 0, 1)" stroke-width="1.5"></path><path d="M495.08 852.93L704.22 642.61" stroke="rgba(0, 0, 0, 1)" stroke-width="1.5"></path><path d="M710.69 398.42L710.69 398.42" stroke="rgba(0, 0, 0, 1)" stroke-width="1.5"></path><path d="M710.69 398.42L816 397.86" stroke="rgba(0, 0, 0, 1)" stroke-width="1.5"></path><path d="M710.69 398.42L849 501.51" stroke="rgba(0, 0, 0, 1)" stroke-width="1.5"></path><path d="M704.22 642.61L704.22 642.61" stroke="rgba(0, 0, 0, 1)" stroke-width="1.5"></path><path d="M704.22 642.61L540.67 711.67" stroke="rgba(0, 0, 0, 1)" stroke-width="1.5"></path><path d="M704.22 642.61L849 501.51" stroke="rgba(0, 0, 0, 1)" stroke-width="1.5"></path><path d="M704.22 642.61L679.37 861.65" stroke="rgba(0, 0, 0, 1)" stroke-width="1.5"></path><path d="M704.22 642.61L710.69 398.42" stroke="rgba(0, 0, 0, 1)" stroke-width="1.5"></path><path d="M679.37 861.65L679.37 861.65" stroke="rgba(0, 0, 0, 1)" stroke-width="1.5"></path><path d="M679.37 861.65L540.67 711.67" stroke="rgba(0, 0, 0, 1)" stroke-width="1.5"></path><path d="M679.37 861.65L952.53 789.55" stroke="rgba(0, 0, 0, 1)" stroke-width="1.5"></path><path d="M679.37 861.65L362.13 802.51" stroke="rgba(0, 0, 0, 1)" stroke-width="1.5"></path><path d="M855.5 221.01L855.5 221.01" stroke="rgba(0, 0, 0, 1)" stroke-width="1.5"></path><path d="M855.5 221.01L989.1 207.44" stroke="rgba(0, 0, 0, 1)" stroke-width="1.5"></path><path d="M855.5 221.01L941.09 341.52" stroke="rgba(0, 0, 0, 1)" stroke-width="1.5"></path><path d="M855.5 221.01L816 397.86" stroke="rgba(0, 0, 0, 1)" stroke-width="1.5"></path><path d="M855.5 221.01L967.52 52.14" stroke="rgba(0, 0, 0, 1)" stroke-width="1.5"></path><path d="M855.5 221.01L710.69 398.42" stroke="rgba(0, 0, 0, 1)" stroke-width="1.5"></path><path d="M816 397.86L816 397.86" stroke="rgba(0, 0, 0, 1)" stroke-width="1.5"></path><path d="M816 397.86L849 501.51" stroke="rgba(0, 0, 0, 1)" stroke-width="1.5"></path><path d="M816 397.86L941.09 341.52" stroke="rgba(0, 0, 0, 1)" stroke-width="1.5"></path><path d="M849 501.51L849 501.51" stroke="rgba(0, 0, 0, 1)" stroke-width="1.5"></path><path d="M849 501.51L962.47 498" stroke="rgba(0, 0, 0, 1)" stroke-width="1.5"></path><path d="M849 501.51L941.09 341.52" stroke="rgba(0, 0, 0, 1)" stroke-width="1.5"></path><path d="M937.88 -46.94L937.88 -46.94" stroke="rgba(0, 0, 0, 1)" stroke-width="1.5"></path><path d="M937.88 -46.94L967.52 52.14" stroke="rgba(0, 0, 0, 1)" stroke-width="1.5"></path><path d="M937.88 -46.94L1126.95 -79.42" stroke="rgba(0, 0, 0, 1)" stroke-width="1.5"></path><path d="M937.88 -46.94L1090.98 73.93" stroke="rgba(0, 0, 0, 1)" stroke-width="1.5"></path><path d="M967.52 52.14L967.52 52.14" stroke="rgba(0, 0, 0, 1)" stroke-width="1.5"></path><path d="M967.52 52.14L1090.98 73.93" stroke="rgba(0, 0, 0, 1)" stroke-width="1.5"></path><path d="M967.52 52.14L989.1 207.44" stroke="rgba(0, 0, 0, 1)" stroke-width="1.5"></path><path d="M967.52 52.14L1126.95 -79.42" stroke="rgba(0, 0, 0, 1)" stroke-width="1.5"></path><path d="M989.1 207.44L989.1 207.44" stroke="rgba(0, 0, 0, 1)" stroke-width="1.5"></path><path d="M989.1 207.44L941.09 341.52" stroke="rgba(0, 0, 0, 1)" stroke-width="1.5"></path><path d="M989.1 207.44L1131.82 260.97" stroke="rgba(0, 0, 0, 1)" stroke-width="1.5"></path><path d="M941.09 341.52L941.09 341.52" stroke="rgba(0, 0, 0, 1)" stroke-width="1.5"></path><path d="M962.47 498L962.47 498" stroke="rgba(0, 0, 0, 1)" stroke-width="1.5"></path><path d="M962.47 498L941.09 341.52" stroke="rgba(0, 0, 0, 1)" stroke-width="1.5"></path><path d="M962.47 498L816 397.86" stroke="rgba(0, 0, 0, 1)" stroke-width="1.5"></path><path d="M962.47 498L1137.67 549.11" stroke="rgba(0, 0, 0, 1)" stroke-width="1.5"></path><path d="M962.47 498L972.7 698.68" stroke="rgba(0, 0, 0, 1)" stroke-width="1.5"></path><path d="M962.47 498L1130.42 666.98" stroke="rgba(0, 0, 0, 1)" stroke-width="1.5"></path><path d="M972.7 698.68L972.7 698.68" stroke="rgba(0, 0, 0, 1)" stroke-width="1.5"></path><path d="M972.7 698.68L952.53 789.55" stroke="rgba(0, 0, 0, 1)" stroke-width="1.5"></path><path d="M972.7 698.68L1130.42 666.98" stroke="rgba(0, 0, 0, 1)" stroke-width="1.5"></path><path d="M972.7 698.68L1105.84 819.24" stroke="rgba(0, 0, 0, 1)" stroke-width="1.5"></path><path d="M952.53 789.55L952.53 789.55" stroke="rgba(0, 0, 0, 1)" stroke-width="1.5"></path><path d="M952.53 789.55L1105.84 819.24" stroke="rgba(0, 0, 0, 1)" stroke-width="1.5"></path><path d="M952.53 789.55L1130.42 666.98" stroke="rgba(0, 0, 0, 1)" stroke-width="1.5"></path><path d="M952.53 789.55L704.22 642.61" stroke="rgba(0, 0, 0, 1)" stroke-width="1.5"></path><path d="M1126.95 -79.42L1126.95 -79.42" stroke="rgba(0, 0, 0, 1)" stroke-width="1.5"></path><path d="M1126.95 -79.42L1259.54 -81.32" stroke="rgba(0, 0, 0, 1)" stroke-width="1.5"></path><path d="M1126.95 -79.42L1090.98 73.93" stroke="rgba(0, 0, 0, 1)" stroke-width="1.5"></path><path d="M1126.95 -79.42L1265.68 61.65" stroke="rgba(0, 0, 0, 1)" stroke-width="1.5"></path><path d="M1090.98 73.93L1090.98 73.93" stroke="rgba(0, 0, 0, 1)" stroke-width="1.5"></path><path d="M1131.82 260.97L1131.82 260.97" stroke="rgba(0, 0, 0, 1)" stroke-width="1.5"></path><path d="M1131.82 260.97L1257.6 254.41" stroke="rgba(0, 0, 0, 1)" stroke-width="1.5"></path><path d="M1131.82 260.97L1304.68 342.65" stroke="rgba(0, 0, 0, 1)" stroke-width="1.5"></path><path d="M1131.82 260.97L1090.98 73.93" stroke="rgba(0, 0, 0, 1)" stroke-width="1.5"></path><path d="M1137.67 549.11L1137.67 549.11" stroke="rgba(0, 0, 0, 1)" stroke-width="1.5"></path><path d="M1137.67 549.11L1130.42 666.98" stroke="rgba(0, 0, 0, 1)" stroke-width="1.5"></path><path d="M1137.67 549.11L1280.91 560.92" stroke="rgba(0, 0, 0, 1)" stroke-width="1.5"></path><path d="M1130.42 666.98L1130.42 666.98" stroke="rgba(0, 0, 0, 1)" stroke-width="1.5"></path><path d="M1130.42 666.98L1105.84 819.24" stroke="rgba(0, 0, 0, 1)" stroke-width="1.5"></path><path d="M1105.84 819.24L1105.84 819.24" stroke="rgba(0, 0, 0, 1)" stroke-width="1.5"></path><path d="M1105.84 819.24L1257.91 830.81" stroke="rgba(0, 0, 0, 1)" stroke-width="1.5"></path><path d="M1259.54 -81.32L1259.54 -81.32" stroke="rgba(0, 0, 0, 1)" stroke-width="1.5"></path><path d="M1259.54 -81.32L1265.68 61.65" stroke="rgba(0, 0, 0, 1)" stroke-width="1.5"></path><path d="M1259.54 -81.32L1427.71 -42.23" stroke="rgba(0, 0, 0, 1)" stroke-width="1.5"></path><path d="M1259.54 -81.32L1398.16 86.4" stroke="rgba(0, 0, 0, 1)" stroke-width="1.5"></path><path d="M1259.54 -81.32L1090.98 73.93" stroke="rgba(0, 0, 0, 1)" stroke-width="1.5"></path><path d="M1265.68 61.65L1265.68 61.65" stroke="rgba(0, 0, 0, 1)" stroke-width="1.5"></path><path d="M1265.68 61.65L1398.16 86.4" stroke="rgba(0, 0, 0, 1)" stroke-width="1.5"></path><path d="M1257.6 254.41L1257.6 254.41" stroke="rgba(0, 0, 0, 1)" stroke-width="1.5"></path><path d="M1257.6 254.41L1304.68 342.65" stroke="rgba(0, 0, 0, 1)" stroke-width="1.5"></path><path d="M1257.6 254.41L1265.68 61.65" stroke="rgba(0, 0, 0, 1)" stroke-width="1.5"></path><path d="M1257.6 254.41L1413.81 384.26" stroke="rgba(0, 0, 0, 1)" stroke-width="1.5"></path><path d="M1304.68 342.65L1304.68 342.65" stroke="rgba(0, 0, 0, 1)" stroke-width="1.5"></path><path d="M1304.68 342.65L1413.81 384.26" stroke="rgba(0, 0, 0, 1)" stroke-width="1.5"></path><path d="M1280.91 560.92L1280.91 560.92" stroke="rgba(0, 0, 0, 1)" stroke-width="1.5"></path><path d="M1280.91 560.92L1297.4 687.67" stroke="rgba(0, 0, 0, 1)" stroke-width="1.5"></path><path d="M1280.91 560.92L1411.59 530.95" stroke="rgba(0, 0, 0, 1)" stroke-width="1.5"></path><path d="M1280.91 560.92L1130.42 666.98" stroke="rgba(0, 0, 0, 1)" stroke-width="1.5"></path><path d="M1280.91 560.92L1423.5 699.67" stroke="rgba(0, 0, 0, 1)" stroke-width="1.5"></path><path d="M1297.4 687.67L1297.4 687.67" stroke="rgba(0, 0, 0, 1)" stroke-width="1.5"></path><path d="M1297.4 687.67L1423.5 699.67" stroke="rgba(0, 0, 0, 1)" stroke-width="1.5"></path><path d="M1297.4 687.67L1257.91 830.81" stroke="rgba(0, 0, 0, 1)" stroke-width="1.5"></path><path d="M1297.4 687.67L1394.73 806.36" stroke="rgba(0, 0, 0, 1)" stroke-width="1.5"></path><path d="M1297.4 687.67L1130.42 666.98" stroke="rgba(0, 0, 0, 1)" stroke-width="1.5"></path><path d="M1257.91 830.81L1257.91 830.81" stroke="rgba(0, 0, 0, 1)" stroke-width="1.5"></path><path d="M1257.91 830.81L1394.73 806.36" stroke="rgba(0, 0, 0, 1)" stroke-width="1.5"></path><path d="M1257.91 830.81L1130.42 666.98" stroke="rgba(0, 0, 0, 1)" stroke-width="1.5"></path><path d="M1427.71 -42.23L1427.71 -42.23" stroke="rgba(0, 0, 0, 1)" stroke-width="1.5"></path><path d="M1427.71 -42.23L1398.16 86.4" stroke="rgba(0, 0, 0, 1)" stroke-width="1.5"></path><path d="M1427.71 -42.23L1577.08 -37.85" stroke="rgba(0, 0, 0, 1)" stroke-width="1.5"></path><path d="M1427.71 -42.23L1577.65 52.92" stroke="rgba(0, 0, 0, 1)" stroke-width="1.5"></path><path d="M1398.16 86.4L1398.16 86.4" stroke="rgba(0, 0, 0, 1)" stroke-width="1.5"></path><path d="M1398.16 86.4L1577.65 52.92" stroke="rgba(0, 0, 0, 1)" stroke-width="1.5"></path><path d="M1398.16 86.4L1577.08 -37.85" stroke="rgba(0, 0, 0, 1)" stroke-width="1.5"></path><path d="M1413.81 384.26L1413.81 384.26" stroke="rgba(0, 0, 0, 1)" stroke-width="1.5"></path><path d="M1413.81 384.26L1411.59 530.95" stroke="rgba(0, 0, 0, 1)" stroke-width="1.5"></path><path d="M1413.81 384.26L1585.79 352.39" stroke="rgba(0, 0, 0, 1)" stroke-width="1.5"></path><path d="M1411.59 530.95L1411.59 530.95" stroke="rgba(0, 0, 0, 1)" stroke-width="1.5"></path><path d="M1423.5 699.67L1423.5 699.67" stroke="rgba(0, 0, 0, 1)" stroke-width="1.5"></path><path d="M1423.5 699.67L1394.73 806.36" stroke="rgba(0, 0, 0, 1)" stroke-width="1.5"></path><path d="M1423.5 699.67L1557.86 678.34" stroke="rgba(0, 0, 0, 1)" stroke-width="1.5"></path><path d="M1423.5 699.67L1411.59 530.95" stroke="rgba(0, 0, 0, 1)" stroke-width="1.5"></path><path d="M1394.73 806.36L1394.73 806.36" stroke="rgba(0, 0, 0, 1)" stroke-width="1.5"></path><path d="M1394.73 806.36L1589.55 822.6" stroke="rgba(0, 0, 0, 1)" stroke-width="1.5"></path><path d="M1394.73 806.36L1557.86 678.34" stroke="rgba(0, 0, 0, 1)" stroke-width="1.5"></path><path d="M1577.08 -37.85L1577.08 -37.85" stroke="rgba(0, 0, 0, 1)" stroke-width="1.5"></path><path d="M1577.08 -37.85L1577.65 52.92" stroke="rgba(0, 0, 0, 1)" stroke-width="1.5"></path><path d="M1577.08 -37.85L1583.77 220.63" stroke="rgba(0, 0, 0, 1)" stroke-width="1.5"></path><path d="M1577.65 52.92L1577.65 52.92" stroke="rgba(0, 0, 0, 1)" stroke-width="1.5"></path><path d="M1577.65 52.92L1583.77 220.63" stroke="rgba(0, 0, 0, 1)" stroke-width="1.5"></path><path d="M1577.65 52.92L1585.79 352.39" stroke="rgba(0, 0, 0, 1)" stroke-width="1.5"></path><path d="M1577.65 52.92L1265.68 61.65" stroke="rgba(0, 0, 0, 1)" stroke-width="1.5"></path><path d="M1583.77 220.63L1583.77 220.63" stroke="rgba(0, 0, 0, 1)" stroke-width="1.5"></path><path d="M1583.77 220.63L1585.79 352.39" stroke="rgba(0, 0, 0, 1)" stroke-width="1.5"></path><path d="M1583.77 220.63L1398.16 86.4" stroke="rgba(0, 0, 0, 1)" stroke-width="1.5"></path><path d="M1585.79 352.39L1585.79 352.39" stroke="rgba(0, 0, 0, 1)" stroke-width="1.5"></path><path d="M1585.79 352.39L1608.58 542.77" stroke="rgba(0, 0, 0, 1)" stroke-width="1.5"></path><path d="M1585.79 352.39L1411.59 530.95" stroke="rgba(0, 0, 0, 1)" stroke-width="1.5"></path><path d="M1585.79 352.39L1304.68 342.65" stroke="rgba(0, 0, 0, 1)" stroke-width="1.5"></path><path d="M1608.58 542.77L1608.58 542.77" stroke="rgba(0, 0, 0, 1)" stroke-width="1.5"></path><path d="M1608.58 542.77L1557.86 678.34" stroke="rgba(0, 0, 0, 1)" stroke-width="1.5"></path><path d="M1608.58 542.77L1411.59 530.95" stroke="rgba(0, 0, 0, 1)" stroke-width="1.5"></path><path d="M1608.58 542.77L1423.5 699.67" stroke="rgba(0, 0, 0, 1)" stroke-width="1.5"></path><path d="M1608.58 542.77L1413.81 384.26" stroke="rgba(0, 0, 0, 1)" stroke-width="1.5"></path><path d="M1608.58 542.77L1589.55 822.6" stroke="rgba(0, 0, 0, 1)" stroke-width="1.5"></path><path d="M1557.86 678.34L1557.86 678.34" stroke="rgba(0, 0, 0, 1)" stroke-width="1.5"></path><path d="M1557.86 678.34L1589.55 822.6" stroke="rgba(0, 0, 0, 1)" stroke-width="1.5"></path><path d="M1557.86 678.34L1411.59 530.95" stroke="rgba(0, 0, 0, 1)" stroke-width="1.5"></path><path d="M1589.55 822.6L1589.55 822.6" stroke="rgba(0, 0, 0, 1)" stroke-width="1.5"></path><path d="M1589.55 822.6L1423.5 699.67" stroke="rgba(0, 0, 0, 1)" stroke-width="1.5"></path><path d="M1589.55 822.6L1297.4 687.67" stroke="rgba(0, 0, 0, 1)" stroke-width="1.5"></path><path d="M1589.55 822.6L1257.91 830.81" stroke="rgba(0, 0, 0, 1)" stroke-width="1.5"></path><circle r="5" cx="-64.76" cy="549.24" fill="rgba(0, 0, 0, 1)"></circle><circle r="5" cx="-76.63" cy="675.24" fill="rgba(0, 0, 0, 1)"></circle><circle r="5" cx="-62.39" cy="794.9" fill="rgba(0, 0, 0, 1)"></circle><circle r="5" cx="74.74" cy="534.87" fill="rgba(0, 0, 0, 1)"></circle><circle r="5" cx="80.2" cy="660.67" fill="rgba(0, 0, 0, 1)"></circle><circle r="5" cx="57.67" cy="788.42" fill="rgba(0, 0, 0, 1)"></circle><circle r="5" cx="215.02" cy="513.31" fill="rgba(0, 0, 0, 1)"></circle><circle r="5" cx="231.05" cy="650.32" fill="rgba(0, 0, 0, 1)"></circle><circle r="5" cx="212.12" cy="840.54" fill="rgba(0, 0, 0, 1)"></circle><circle r="5" cx="399.18" cy="510.81" fill="rgba(0, 0, 0, 1)"></circle><circle r="5" cx="369.7" cy="705.05" fill="rgba(0, 0, 0, 1)"></circle><circle r="5" cx="362.13" cy="802.51" fill="rgba(0, 0, 0, 1)"></circle><circle r="5" cx="497.79" cy="391.55" fill="rgba(0, 0, 0, 1)"></circle><circle r="5" cx="554.9" cy="551.4" fill="rgba(0, 0, 0, 1)"></circle><circle r="5" cx="540.67" cy="711.67" fill="rgba(0, 0, 0, 1)"></circle><circle r="5" cx="495.08" cy="852.93" fill="rgba(0, 0, 0, 1)"></circle><circle r="5" cx="710.69" cy="398.42" fill="rgba(0, 0, 0, 1)"></circle><circle r="5" cx="704.22" cy="642.61" fill="rgba(0, 0, 0, 1)"></circle><circle r="5" cx="679.37" cy="861.65" fill="rgba(0, 0, 0, 1)"></circle><circle r="5" cx="855.5" cy="221.01" fill="rgba(0, 0, 0, 1)"></circle><circle r="5" cx="816" cy="397.86" fill="rgba(0, 0, 0, 1)"></circle><circle r="5" cx="849" cy="501.51" fill="rgba(0, 0, 0, 1)"></circle><circle r="5" cx="937.88" cy="-46.94" fill="rgba(0, 0, 0, 1)"></circle><circle r="5" cx="967.52" cy="52.14" fill="rgba(0, 0, 0, 1)"></circle><circle r="5" cx="989.1" cy="207.44" fill="rgba(0, 0, 0, 1)"></circle><circle r="5" cx="941.09" cy="341.52" fill="rgba(0, 0, 0, 1)"></circle><circle r="5" cx="962.47" cy="498" fill="rgba(0, 0, 0, 1)"></circle><circle r="5" cx="972.7" cy="698.68" fill="rgba(0, 0, 0, 1)"></circle><circle r="5" cx="952.53" cy="789.55" fill="rgba(0, 0, 0, 1)"></circle><circle r="5" cx="1126.95" cy="-79.42" fill="rgba(0, 0, 0, 1)"></circle><circle r="5" cx="1090.98" cy="73.93" fill="rgba(0, 0, 0, 1)"></circle><circle r="5" cx="1131.82" cy="260.97" fill="rgba(0, 0, 0, 1)"></circle><circle r="5" cx="1137.67" cy="549.11" fill="rgba(0, 0, 0, 1)"></circle><circle r="5" cx="1130.42" cy="666.98" fill="rgba(0, 0, 0, 1)"></circle><circle r="5" cx="1105.84" cy="819.24" fill="rgba(0, 0, 0, 1)"></circle><circle r="5" cx="1259.54" cy="-81.32" fill="rgba(0, 0, 0, 1)"></circle><circle r="5" cx="1265.68" cy="61.65" fill="rgba(0, 0, 0, 1)"></circle><circle r="5" cx="1257.6" cy="254.41" fill="rgba(0, 0, 0, 1)"></circle><circle r="5" cx="1304.68" cy="342.65" fill="rgba(0, 0, 0, 1)"></circle><circle r="5" cx="1280.91" cy="560.92" fill="rgba(0, 0, 0, 1)"></circle><circle r="5" cx="1297.4" cy="687.67" fill="rgba(0, 0, 0, 1)"></circle><circle r="5" cx="1257.91" cy="830.81" fill="rgba(0, 0, 0, 1)"></circle><circle r="5" cx="1427.71" cy="-42.23" fill="rgba(0, 0, 0, 1)"></circle><circle r="5" cx="1398.16" cy="86.4" fill="rgba(0, 0, 0, 1)"></circle><circle r="5" cx="1413.81" cy="384.26" fill="rgba(0, 0, 0, 1)"></circle><circle r="5" cx="1411.59" cy="530.95" fill="rgba(0, 0, 0, 1)"></circle><circle r="5" cx="1423.5" cy="699.67" fill="rgba(0, 0, 0, 1)"></circle><circle r="5" cx="1394.73" cy="806.36" fill="rgba(0, 0, 0, 1)"></circle><circle r="5" cx="1577.08" cy="-37.85" fill="rgba(0, 0, 0, 1)"></circle><circle r="5" cx="1577.65" cy="52.92" fill="rgba(0, 0, 0, 1)"></circle><circle r="5" cx="1583.77" cy="220.63" fill="rgba(0, 0, 0, 1)"></circle><circle r="5" cx="1585.79" cy="352.39" fill="rgba(0, 0, 0, 1)"></circle><circle r="5" cx="1608.58" cy="542.77" fill="rgba(0, 0, 0, 1)"></circle><circle r="5" cx="1557.86" cy="678.34" fill="rgba(0, 0, 0, 1)"></circle><circle r="5" cx="1589.55" cy="822.6" fill="rgba(0, 0, 0, 1)"></circle><path d="M992.99 501.47L992.99 501.47" stroke="hsl(0, 0%, 0%)" stroke-width="1.5"></path><path d="M992.99 501.47L968.23 404.32" stroke="hsl(0, 0%, 0%)" stroke-width="1.5"></path><path d="M992.99 501.47L1101.47 519.49" stroke="hsl(0, 0%, 0%)" stroke-width="1.5"></path><path d="M937.65 700.5L937.65 700.5" stroke="hsl(0, 0%, 0%)" stroke-width="1.5"></path><path d="M937.65 700.5L853.33 698.96" stroke="hsl(0, 0%, 0%)" stroke-width="1.5"></path><path d="M937.65 700.5L967.36 801.87" stroke="hsl(0, 0%, 0%)" stroke-width="1.5"></path><path d="M937.65 700.5L836.92 859.55" stroke="hsl(0, 0%, 0%)" stroke-width="1.5"></path><path d="M1248.17 227.81L1248.17 227.81" stroke="hsl(0, 0%, 0%)" stroke-width="1.5"></path><path d="M1248.17 227.81L1244.23 379.55" stroke="hsl(0, 0%, 0%)" stroke-width="1.5"></path><path d="M1248.17 227.81L1300.81 79.76" stroke="hsl(0, 0%, 0%)" stroke-width="1.5"></path><path d="M1248.17 227.81L1408.63 249.92" stroke="hsl(0, 0%, 0%)" stroke-width="1.5"></path><path d="M1248.17 227.81L1396.15 66.18" stroke="hsl(0, 0%, 0%)" stroke-width="1.5"></path><path d="M1396.15 66.18L1396.15 66.18" stroke="hsl(0, 0%, 0%)" stroke-width="1.5"></path><path d="M1396.15 66.18L1300.81 79.76" stroke="hsl(0, 0%, 0%)" stroke-width="1.5"></path><path d="M1396.15 66.18L1408.63 249.92" stroke="hsl(0, 0%, 0%)" stroke-width="1.5"></path><path d="M1396.15 66.18L1586.09 105.52" stroke="hsl(0, 0%, 0%)" stroke-width="1.5"></path><path d="M1396.15 66.18L1550.25 -59.17" stroke="hsl(0, 0%, 0%)" stroke-width="1.5"></path><path d="M1396.15 66.18L1257.96 -105.61" stroke="hsl(0, 0%, 0%)" stroke-width="1.5"></path><path d="M1410.92 402.16L1410.92 402.16" stroke="hsl(0, 0%, 0%)" stroke-width="1.5"></path><path d="M1410.92 402.16L1547.1 364.44" stroke="hsl(0, 0%, 0%)" stroke-width="1.5"></path><path d="M1410.92 402.16L1408.63 249.92" stroke="hsl(0, 0%, 0%)" stroke-width="1.5"></path><path d="M1410.92 402.16L1244.23 379.55" stroke="hsl(0, 0%, 0%)" stroke-width="1.5"></path><path d="M1410.92 402.16L1285.94 560.38" stroke="hsl(0, 0%, 0%)" stroke-width="1.5"></path><path d="M1410.92 402.16L1545.35 553.32" stroke="hsl(0, 0%, 0%)" stroke-width="1.5"></path><path d="M1410.92 402.16L1583.27 251.05" stroke="hsl(0, 0%, 0%)" stroke-width="1.5"></path><path d="M1453.85 698.11L1453.85 698.11" stroke="hsl(0, 0%, 0%)" stroke-width="1.5"></path><path d="M1453.85 698.11L1566.52 649.24" stroke="hsl(0, 0%, 0%)" stroke-width="1.5"></path><path d="M1453.85 698.11L1448.06 843.18" stroke="hsl(0, 0%, 0%)" stroke-width="1.5"></path><path d="M1453.85 698.11L1545.35 553.32" stroke="hsl(0, 0%, 0%)" stroke-width="1.5"></path><path d="M1583.27 251.05L1583.27 251.05" stroke="hsl(0, 0%, 0%)" stroke-width="1.5"></path><path d="M1583.27 251.05L1547.1 364.44" stroke="hsl(0, 0%, 0%)" stroke-width="1.5"></path><path d="M1583.27 251.05L1586.09 105.52" stroke="hsl(0, 0%, 0%)" stroke-width="1.5"></path><path d="M1588.2 811.74L1588.2 811.74" stroke="hsl(0, 0%, 0%)" stroke-width="1.5"></path><path d="M1588.2 811.74L1448.06 843.18" stroke="hsl(0, 0%, 0%)" stroke-width="1.5"></path><path d="M1588.2 811.74L1566.52 649.24" stroke="hsl(0, 0%, 0%)" stroke-width="1.5"></path><path d="M1588.2 811.74L1453.85 698.11" stroke="hsl(0, 0%, 0%)" stroke-width="1.5"></path><path d="M1588.2 811.74L1545.35 553.32" stroke="hsl(0, 0%, 0%)" stroke-width="1.5"></path><path d="M-53.43 652.19L-53.43 652.19" stroke="hsl(0, 0%, 0%)" stroke-width="1.5"></path><path d="M-53.43 652.19L104.05 677.85" stroke="hsl(0, 0%, 0%)" stroke-width="1.5"></path><path d="M-53.43 652.19L-109.51 860.33" stroke="hsl(0, 0%, 0%)" stroke-width="1.5"></path><path d="M-109.51 860.33L-109.51 860.33" stroke="hsl(0, 0%, 0%)" stroke-width="1.5"></path><path d="M-109.51 860.33L40.4 850.9" stroke="hsl(0, 0%, 0%)" stroke-width="1.5"></path><path d="M-109.51 860.33L104.05 677.85" stroke="hsl(0, 0%, 0%)" stroke-width="1.5"></path><path d="M104.05 677.85L104.05 677.85" stroke="hsl(0, 0%, 0%)" stroke-width="1.5"></path><path d="M104.05 677.85L191.84 699.95" stroke="hsl(0, 0%, 0%)" stroke-width="1.5"></path><path d="M104.05 677.85L40.4 850.9" stroke="hsl(0, 0%, 0%)" stroke-width="1.5"></path><path d="M104.05 677.85L250.79 797.93" stroke="hsl(0, 0%, 0%)" stroke-width="1.5"></path><path d="M104.05 677.85L344.49 679.16" stroke="hsl(0, 0%, 0%)" stroke-width="1.5"></path><path d="M40.4 850.9L40.4 850.9" stroke="hsl(0, 0%, 0%)" stroke-width="1.5"></path><path d="M191.84 699.95L191.84 699.95" stroke="hsl(0, 0%, 0%)" stroke-width="1.5"></path><path d="M191.84 699.95L250.79 797.93" stroke="hsl(0, 0%, 0%)" stroke-width="1.5"></path><path d="M191.84 699.95L344.49 679.16" stroke="hsl(0, 0%, 0%)" stroke-width="1.5"></path><path d="M191.84 699.95L40.4 850.9" stroke="hsl(0, 0%, 0%)" stroke-width="1.5"></path><path d="M250.79 797.93L250.79 797.93" stroke="hsl(0, 0%, 0%)" stroke-width="1.5"></path><path d="M250.79 797.93L371.96 844.87" stroke="hsl(0, 0%, 0%)" stroke-width="1.5"></path><path d="M250.79 797.93L344.49 679.16" stroke="hsl(0, 0%, 0%)" stroke-width="1.5"></path><path d="M344.49 679.16L344.49 679.16" stroke="hsl(0, 0%, 0%)" stroke-width="1.5"></path><path d="M344.49 679.16L490.88 708.13" stroke="hsl(0, 0%, 0%)" stroke-width="1.5"></path><path d="M371.96 844.87L371.96 844.87" stroke="hsl(0, 0%, 0%)" stroke-width="1.5"></path><path d="M371.96 844.87L344.49 679.16" stroke="hsl(0, 0%, 0%)" stroke-width="1.5"></path><path d="M371.96 844.87L542.95 829.73" stroke="hsl(0, 0%, 0%)" stroke-width="1.5"></path><path d="M371.96 844.87L490.88 708.13" stroke="hsl(0, 0%, 0%)" stroke-width="1.5"></path><path d="M371.96 844.87L191.84 699.95" stroke="hsl(0, 0%, 0%)" stroke-width="1.5"></path><path d="M371.96 844.87L104.05 677.85" stroke="hsl(0, 0%, 0%)" stroke-width="1.5"></path><path d="M490.88 708.13L490.88 708.13" stroke="hsl(0, 0%, 0%)" stroke-width="1.5"></path><path d="M490.88 708.13L542.95 829.73" stroke="hsl(0, 0%, 0%)" stroke-width="1.5"></path><path d="M542.95 829.73L542.95 829.73" stroke="hsl(0, 0%, 0%)" stroke-width="1.5"></path><path d="M542.95 829.73L706.15 831.83" stroke="hsl(0, 0%, 0%)" stroke-width="1.5"></path><path d="M696.69 499.94L696.69 499.94" stroke="hsl(0, 0%, 0%)" stroke-width="1.5"></path><path d="M696.69 499.94L846.04 514.74" stroke="hsl(0, 0%, 0%)" stroke-width="1.5"></path><path d="M696.69 499.94L678.38 699.2" stroke="hsl(0, 0%, 0%)" stroke-width="1.5"></path><path d="M696.69 499.94L853.33 698.96" stroke="hsl(0, 0%, 0%)" stroke-width="1.5"></path><path d="M696.69 499.94L968.23 404.32" stroke="hsl(0, 0%, 0%)" stroke-width="1.5"></path><path d="M696.69 499.94L490.88 708.13" stroke="hsl(0, 0%, 0%)" stroke-width="1.5"></path><path d="M696.69 499.94L992.99 501.47" stroke="hsl(0, 0%, 0%)" stroke-width="1.5"></path><path d="M678.38 699.2L678.38 699.2" stroke="hsl(0, 0%, 0%)" stroke-width="1.5"></path><path d="M678.38 699.2L706.15 831.83" stroke="hsl(0, 0%, 0%)" stroke-width="1.5"></path><path d="M678.38 699.2L853.33 698.96" stroke="hsl(0, 0%, 0%)" stroke-width="1.5"></path><path d="M678.38 699.2L490.88 708.13" stroke="hsl(0, 0%, 0%)" stroke-width="1.5"></path><path d="M678.38 699.2L542.95 829.73" stroke="hsl(0, 0%, 0%)" stroke-width="1.5"></path><path d="M706.15 831.83L706.15 831.83" stroke="hsl(0, 0%, 0%)" stroke-width="1.5"></path><path d="M706.15 831.83L836.92 859.55" stroke="hsl(0, 0%, 0%)" stroke-width="1.5"></path><path d="M846.04 514.74L846.04 514.74" stroke="hsl(0, 0%, 0%)" stroke-width="1.5"></path><path d="M846.04 514.74L992.99 501.47" stroke="hsl(0, 0%, 0%)" stroke-width="1.5"></path><path d="M846.04 514.74L968.23 404.32" stroke="hsl(0, 0%, 0%)" stroke-width="1.5"></path><path d="M846.04 514.74L853.33 698.96" stroke="hsl(0, 0%, 0%)" stroke-width="1.5"></path><path d="M846.04 514.74L937.65 700.5" stroke="hsl(0, 0%, 0%)" stroke-width="1.5"></path><path d="M853.33 698.96L853.33 698.96" stroke="hsl(0, 0%, 0%)" stroke-width="1.5"></path><path d="M853.33 698.96L967.36 801.87" stroke="hsl(0, 0%, 0%)" stroke-width="1.5"></path><path d="M836.92 859.55L836.92 859.55" stroke="hsl(0, 0%, 0%)" stroke-width="1.5"></path><path d="M836.92 859.55L967.36 801.87" stroke="hsl(0, 0%, 0%)" stroke-width="1.5"></path><path d="M836.92 859.55L853.33 698.96" stroke="hsl(0, 0%, 0%)" stroke-width="1.5"></path><path d="M836.92 859.55L678.38 699.2" stroke="hsl(0, 0%, 0%)" stroke-width="1.5"></path><path d="M968.23 404.32L968.23 404.32" stroke="hsl(0, 0%, 0%)" stroke-width="1.5"></path><path d="M968.23 404.32L1101.47 519.49" stroke="hsl(0, 0%, 0%)" stroke-width="1.5"></path><path d="M967.36 801.87L967.36 801.87" stroke="hsl(0, 0%, 0%)" stroke-width="1.5"></path><path d="M1101.47 519.49L1101.47 519.49" stroke="hsl(0, 0%, 0%)" stroke-width="1.5"></path><path d="M1101.47 519.49L1136.91 674.31" stroke="hsl(0, 0%, 0%)" stroke-width="1.5"></path><path d="M1136.91 674.31L1136.91 674.31" stroke="hsl(0, 0%, 0%)" stroke-width="1.5"></path><path d="M1136.91 674.31L1243.73 686.62" stroke="hsl(0, 0%, 0%)" stroke-width="1.5"></path><path d="M1097.92 850.36L1097.92 850.36" stroke="hsl(0, 0%, 0%)" stroke-width="1.5"></path><path d="M1097.92 850.36L967.36 801.87" stroke="hsl(0, 0%, 0%)" stroke-width="1.5"></path><path d="M1097.92 850.36L1136.91 674.31" stroke="hsl(0, 0%, 0%)" stroke-width="1.5"></path><path d="M1257.96 -105.61L1257.96 -105.61" stroke="hsl(0, 0%, 0%)" stroke-width="1.5"></path><path d="M1257.96 -105.61L1300.81 79.76" stroke="hsl(0, 0%, 0%)" stroke-width="1.5"></path><path d="M1257.96 -105.61L1550.25 -59.17" stroke="hsl(0, 0%, 0%)" stroke-width="1.5"></path><path d="M1300.81 79.76L1300.81 79.76" stroke="hsl(0, 0%, 0%)" stroke-width="1.5"></path><path d="M1300.81 79.76L1408.63 249.92" stroke="hsl(0, 0%, 0%)" stroke-width="1.5"></path><path d="M1300.81 79.76L1550.25 -59.17" stroke="hsl(0, 0%, 0%)" stroke-width="1.5"></path><path d="M1300.81 79.76L1586.09 105.52" stroke="hsl(0, 0%, 0%)" stroke-width="1.5"></path><path d="M1244.23 379.55L1244.23 379.55" stroke="hsl(0, 0%, 0%)" stroke-width="1.5"></path><path d="M1244.23 379.55L1285.94 560.38" stroke="hsl(0, 0%, 0%)" stroke-width="1.5"></path><path d="M1244.23 379.55L1101.47 519.49" stroke="hsl(0, 0%, 0%)" stroke-width="1.5"></path><path d="M1285.94 560.38L1285.94 560.38" stroke="hsl(0, 0%, 0%)" stroke-width="1.5"></path><path d="M1285.94 560.38L1243.73 686.62" stroke="hsl(0, 0%, 0%)" stroke-width="1.5"></path><path d="M1285.94 560.38L1136.91 674.31" stroke="hsl(0, 0%, 0%)" stroke-width="1.5"></path><path d="M1285.94 560.38L1101.47 519.49" stroke="hsl(0, 0%, 0%)" stroke-width="1.5"></path><path d="M1285.94 560.38L1453.85 698.11" stroke="hsl(0, 0%, 0%)" stroke-width="1.5"></path><path d="M1243.73 686.62L1243.73 686.62" stroke="hsl(0, 0%, 0%)" stroke-width="1.5"></path><path d="M1303.05 812.56L1303.05 812.56" stroke="hsl(0, 0%, 0%)" stroke-width="1.5"></path><path d="M1303.05 812.56L1243.73 686.62" stroke="hsl(0, 0%, 0%)" stroke-width="1.5"></path><path d="M1303.05 812.56L1448.06 843.18" stroke="hsl(0, 0%, 0%)" stroke-width="1.5"></path><path d="M1408.63 249.92L1408.63 249.92" stroke="hsl(0, 0%, 0%)" stroke-width="1.5"></path><path d="M1408.63 249.92L1583.27 251.05" stroke="hsl(0, 0%, 0%)" stroke-width="1.5"></path><path d="M1408.63 249.92L1547.1 364.44" stroke="hsl(0, 0%, 0%)" stroke-width="1.5"></path><path d="M1448.06 843.18L1448.06 843.18" stroke="hsl(0, 0%, 0%)" stroke-width="1.5"></path><path d="M1448.06 843.18L1566.52 649.24" stroke="hsl(0, 0%, 0%)" stroke-width="1.5"></path><path d="M1550.25 -59.17L1550.25 -59.17" stroke="hsl(0, 0%, 0%)" stroke-width="1.5"></path><path d="M1550.25 -59.17L1586.09 105.52" stroke="hsl(0, 0%, 0%)" stroke-width="1.5"></path><path d="M1586.09 105.52L1586.09 105.52" stroke="hsl(0, 0%, 0%)" stroke-width="1.5"></path><path d="M1586.09 105.52L1408.63 249.92" stroke="hsl(0, 0%, 0%)" stroke-width="1.5"></path><path d="M1586.09 105.52L1547.1 364.44" stroke="hsl(0, 0%, 0%)" stroke-width="1.5"></path><path d="M1547.1 364.44L1547.1 364.44" stroke="hsl(0, 0%, 0%)" stroke-width="1.5"></path><path d="M1545.35 553.32L1545.35 553.32" stroke="hsl(0, 0%, 0%)" stroke-width="1.5"></path><path d="M1545.35 553.32L1566.52 649.24" stroke="hsl(0, 0%, 0%)" stroke-width="1.5"></path><path d="M1545.35 553.32L1547.1 364.44" stroke="hsl(0, 0%, 0%)" stroke-width="1.5"></path><path d="M1566.52 649.24L1566.52 649.24" stroke="hsl(0, 0%, 0%)" stroke-width="1.5"></path><path d="M1566.52 649.24L1547.1 364.44" stroke="hsl(0, 0%, 0%)" stroke-width="1.5"></path><circle r="25" cx="992.99" cy="501.47" fill="url(#SvgjsRadialGradient1852)"></circle><circle r="25" cx="937.65" cy="700.5" fill="url(#SvgjsRadialGradient1852)"></circle><circle r="25" cx="1248.17" cy="227.81" fill="url(#SvgjsRadialGradient1852)"></circle><circle r="25" cx="1396.15" cy="66.18" fill="url(#SvgjsRadialGradient1852)"></circle><circle r="25" cx="1410.92" cy="402.16" fill="url(#SvgjsRadialGradient1852)"></circle><circle r="25" cx="1453.85" cy="698.11" fill="url(#SvgjsRadialGradient1852)"></circle><circle r="25" cx="1583.27" cy="251.05" fill="url(#SvgjsRadialGradient1852)"></circle><circle r="25" cx="1588.2" cy="811.74" fill="url(#SvgjsRadialGradient1852)"></circle><circle r="5" cx="-53.43" cy="652.19" fill="#808080"></circle><circle r="5" cx="-109.51" cy="860.33" fill="#808080"></circle><circle r="5" cx="104.05" cy="677.85" fill="#808080"></circle><circle r="5" cx="40.4" cy="850.9" fill="#808080"></circle><circle r="5" cx="191.84" cy="699.95" fill="#808080"></circle><circle r="5" cx="250.79" cy="797.93" fill="#808080"></circle><circle r="5" cx="344.49" cy="679.16" fill="#808080"></circle><circle r="5" cx="371.96" cy="844.87" fill="#808080"></circle><circle r="5" cx="490.88" cy="708.13" fill="#808080"></circle><circle r="5" cx="542.95" cy="829.73" fill="#808080"></circle><circle r="5" cx="696.69" cy="499.94" fill="#808080"></circle><circle r="5" cx="678.38" cy="699.2" fill="#808080"></circle><circle r="5" cx="706.15" cy="831.83" fill="#808080"></circle><circle r="5" cx="846.04" cy="514.74" fill="#808080"></circle><circle r="5" cx="853.33" cy="698.96" fill="#808080"></circle><circle r="5" cx="836.92" cy="859.55" fill="#808080"></circle><circle r="5" cx="968.23" cy="404.32" fill="#808080"></circle><circle r="5" cx="967.36" cy="801.87" fill="#808080"></circle><circle r="5" cx="1101.47" cy="519.49" fill="#808080"></circle><circle r="5" cx="1136.91" cy="674.31" fill="#808080"></circle><circle r="5" cx="1097.92" cy="850.36" fill="#808080"></circle><circle r="5" cx="1257.96" cy="-105.61" fill="#808080"></circle><circle r="5" cx="1300.81" cy="79.76" fill="#808080"></circle><circle r="5" cx="1244.23" cy="379.55" fill="#808080"></circle><circle r="5" cx="1285.94" cy="560.38" fill="#808080"></circle><circle r="5" cx="1243.73" cy="686.62" fill="#808080"></circle><circle r="5" cx="1303.05" cy="812.56" fill="#808080"></circle><circle r="5" cx="1408.63" cy="249.92" fill="#808080"></circle><circle r="5" cx="1448.06" cy="843.18" fill="#808080"></circle><circle r="5" cx="1550.25" cy="-59.17" fill="#808080"></circle><circle r="5" cx="1586.09" cy="105.52" fill="#808080"></circle><circle r="5" cx="1547.1" cy="364.44" fill="#808080"></circle><circle r="5" cx="1545.35" cy="553.32" fill="#808080"></circle><circle r="5" cx="1566.52" cy="649.24" fill="#808080"></circle></g><defs><mask id="SvgjsMask1851"><rect width="1460" height="750" fill="#ffffff"></rect></mask><radialGradient id="SvgjsRadialGradient1852"><stop stop-color="#ffffff" offset="0.1"></stop><stop stop-color="rgba(0, 0, 0, 1)" offset="0.2"></stop><stop stop-color="rgba(0, 0, 0, 0)" offset="1"></stop></radialGradient></defs></svg>