<svg xmlns="http://www.w3.org/2000/svg" version="1.1" xmlns:xlink="http://www.w3.org/1999/xlink" xmlns:svgjs="http://svgjs.com/svgjs" width="1460" height="750" preserveAspectRatio="none" viewBox="0 0 1460 750">
    <g mask="url(&quot;#SvgjsMask3187&quot;)" fill="none">
        <rect width="1460" height="750" x="0" y="0" fill="url(#SvgjsLinearGradient3188)"></rect>
        <path d="M-86.12 487.54L-86.12 487.54" stroke="rgba(0, 0, 0, 1)" stroke-width="1.5"></path>
        <path d="M-86.12 487.54L43.69 502.76" stroke="rgba(0, 0, 0, 1)" stroke-width="1.5"></path>
        <path d="M-86.12 487.54L-57.05 702.88" stroke="rgba(0, 0, 0, 1)" stroke-width="1.5"></path>
        <path d="M-86.12 487.54L109.48 671.49" stroke="rgba(0, 0, 0, 1)" stroke-width="1.5"></path>
        <path d="M-57.05 702.88L-57.05 702.88" stroke="rgba(0, 0, 0, 1)" stroke-width="1.5"></path>
        <path d="M-57.05 702.88L-99.58 792.71" stroke="rgba(0, 0, 0, 1)" stroke-width="1.5"></path>
        <path d="M-57.05 702.88L109.48 671.49" stroke="rgba(0, 0, 0, 1)" stroke-width="1.5"></path>
        <path d="M-57.05 702.88L90.7 787.75" stroke="rgba(0, 0, 0, 1)" stroke-width="1.5"></path>
        <path d="M-99.58 792.71L-99.58 792.71" stroke="rgba(0, 0, 0, 1)" stroke-width="1.5"></path>
        <path d="M-99.58 792.71L90.7 787.75" stroke="rgba(0, 0, 0, 1)" stroke-width="1.5"></path>
        <path d="M-99.58 792.71L109.48 671.49" stroke="rgba(0, 0, 0, 1)" stroke-width="1.5"></path>
        <path d="M-99.58 792.71L-86.12 487.54" stroke="rgba(0, 0, 0, 1)" stroke-width="1.5"></path>
        <path d="M-99.58 792.71L43.69 502.76" stroke="rgba(0, 0, 0, 1)" stroke-width="1.5"></path>
        <path d="M-99.58 792.71L191.02 643.88" stroke="rgba(0, 0, 0, 1)" stroke-width="1.5"></path>
        <path d="M43.69 502.76L43.69 502.76" stroke="rgba(0, 0, 0, 1)" stroke-width="1.5"></path>
        <path d="M43.69 502.76L207.94 554.37" stroke="rgba(0, 0, 0, 1)" stroke-width="1.5"></path>
        <path d="M43.69 502.76L109.48 671.49" stroke="rgba(0, 0, 0, 1)" stroke-width="1.5"></path>
        <path d="M43.69 502.76L191.02 643.88" stroke="rgba(0, 0, 0, 1)" stroke-width="1.5"></path>
        <path d="M43.69 502.76L-57.05 702.88" stroke="rgba(0, 0, 0, 1)" stroke-width="1.5"></path>
        <path d="M109.48 671.49L109.48 671.49" stroke="rgba(0, 0, 0, 1)" stroke-width="1.5"></path>
        <path d="M109.48 671.49L191.02 643.88" stroke="rgba(0, 0, 0, 1)" stroke-width="1.5"></path>
        <path d="M109.48 671.49L90.7 787.75" stroke="rgba(0, 0, 0, 1)" stroke-width="1.5"></path>
        <path d="M109.48 671.49L207.94 554.37" stroke="rgba(0, 0, 0, 1)" stroke-width="1.5"></path>
        <path d="M90.7 787.75L90.7 787.75" stroke="rgba(0, 0, 0, 1)" stroke-width="1.5"></path>
        <path d="M90.7 787.75L242.11 836.81" stroke="rgba(0, 0, 0, 1)" stroke-width="1.5"></path>
        <path d="M207.94 554.37L207.94 554.37" stroke="rgba(0, 0, 0, 1)" stroke-width="1.5"></path>
        <path d="M207.94 554.37L191.02 643.88" stroke="rgba(0, 0, 0, 1)" stroke-width="1.5"></path>
        <path d="M207.94 554.37L395.94 524.57" stroke="rgba(0, 0, 0, 1)" stroke-width="1.5"></path>
        <path d="M207.94 554.37L376.67 669.89" stroke="rgba(0, 0, 0, 1)" stroke-width="1.5"></path>
        <path d="M191.02 643.88L191.02 643.88" stroke="rgba(0, 0, 0, 1)" stroke-width="1.5"></path>
        <path d="M191.02 643.88L90.7 787.75" stroke="rgba(0, 0, 0, 1)" stroke-width="1.5"></path>
        <path d="M242.11 836.81L242.11 836.81" stroke="rgba(0, 0, 0, 1)" stroke-width="1.5"></path>
        <path d="M242.11 836.81L355.37 823.87" stroke="rgba(0, 0, 0, 1)" stroke-width="1.5"></path>
        <path d="M242.11 836.81L191.02 643.88" stroke="rgba(0, 0, 0, 1)" stroke-width="1.5"></path>
        <path d="M242.11 836.81L109.48 671.49" stroke="rgba(0, 0, 0, 1)" stroke-width="1.5"></path>
        <path d="M395.94 524.57L395.94 524.57" stroke="rgba(0, 0, 0, 1)" stroke-width="1.5"></path>
        <path d="M395.94 524.57L529.78 505.07" stroke="rgba(0, 0, 0, 1)" stroke-width="1.5"></path>
        <path d="M395.94 524.57L376.67 669.89" stroke="rgba(0, 0, 0, 1)" stroke-width="1.5"></path>
        <path d="M395.94 524.57L492.6 640.35" stroke="rgba(0, 0, 0, 1)" stroke-width="1.5"></path>
        <path d="M376.67 669.89L376.67 669.89" stroke="rgba(0, 0, 0, 1)" stroke-width="1.5"></path>
        <path d="M376.67 669.89L492.6 640.35" stroke="rgba(0, 0, 0, 1)" stroke-width="1.5"></path>
        <path d="M355.37 823.87L355.37 823.87" stroke="rgba(0, 0, 0, 1)" stroke-width="1.5"></path>
        <path d="M355.37 823.87L376.67 669.89" stroke="rgba(0, 0, 0, 1)" stroke-width="1.5"></path>
        <path d="M529.78 505.07L529.78 505.07" stroke="rgba(0, 0, 0, 1)" stroke-width="1.5"></path>
        <path d="M529.78 505.07L492.6 640.35" stroke="rgba(0, 0, 0, 1)" stroke-width="1.5"></path>
        <path d="M529.78 505.07L688.14 514.88" stroke="rgba(0, 0, 0, 1)" stroke-width="1.5"></path>
        <path d="M529.78 505.07L674.82 672.4" stroke="rgba(0, 0, 0, 1)" stroke-width="1.5"></path>
        <path d="M529.78 505.07L376.67 669.89" stroke="rgba(0, 0, 0, 1)" stroke-width="1.5"></path>
        <path d="M529.78 505.07L703.7 338.04" stroke="rgba(0, 0, 0, 1)" stroke-width="1.5"></path>
        <path d="M492.6 640.35L492.6 640.35" stroke="rgba(0, 0, 0, 1)" stroke-width="1.5"></path>
        <path d="M534.2 832.63L534.2 832.63" stroke="rgba(0, 0, 0, 1)" stroke-width="1.5"></path>
        <path d="M534.2 832.63L649.87 828.98" stroke="rgba(0, 0, 0, 1)" stroke-width="1.5"></path>
        <path d="M534.2 832.63L355.37 823.87" stroke="rgba(0, 0, 0, 1)" stroke-width="1.5"></path>
        <path d="M703.7 338.04L703.7 338.04" stroke="rgba(0, 0, 0, 1)" stroke-width="1.5"></path>
        <path d="M703.7 338.04L843.1 355.86" stroke="rgba(0, 0, 0, 1)" stroke-width="1.5"></path>
        <path d="M703.7 338.04L827.56 221.82" stroke="rgba(0, 0, 0, 1)" stroke-width="1.5"></path>
        <path d="M703.7 338.04L688.14 514.88" stroke="rgba(0, 0, 0, 1)" stroke-width="1.5"></path>
        <path d="M688.14 514.88L688.14 514.88" stroke="rgba(0, 0, 0, 1)" stroke-width="1.5"></path>
        <path d="M688.14 514.88L802.14 525.31" stroke="rgba(0, 0, 0, 1)" stroke-width="1.5"></path>
        <path d="M688.14 514.88L674.82 672.4" stroke="rgba(0, 0, 0, 1)" stroke-width="1.5"></path>
        <path d="M674.82 672.4L674.82 672.4" stroke="rgba(0, 0, 0, 1)" stroke-width="1.5"></path>
        <path d="M674.82 672.4L803.85 661.86" stroke="rgba(0, 0, 0, 1)" stroke-width="1.5"></path>
        <path d="M674.82 672.4L649.87 828.98" stroke="rgba(0, 0, 0, 1)" stroke-width="1.5"></path>
        <path d="M674.82 672.4L492.6 640.35" stroke="rgba(0, 0, 0, 1)" stroke-width="1.5"></path>
        <path d="M674.82 672.4L802.14 525.31" stroke="rgba(0, 0, 0, 1)" stroke-width="1.5"></path>
        <path d="M649.87 828.98L649.87 828.98" stroke="rgba(0, 0, 0, 1)" stroke-width="1.5"></path>
        <path d="M649.87 828.98L790.8 838.23" stroke="rgba(0, 0, 0, 1)" stroke-width="1.5"></path>
        <path d="M827.56 221.82L827.56 221.82" stroke="rgba(0, 0, 0, 1)" stroke-width="1.5"></path>
        <path d="M827.56 221.82L950.64 197.98" stroke="rgba(0, 0, 0, 1)" stroke-width="1.5"></path>
        <path d="M827.56 221.82L843.1 355.86" stroke="rgba(0, 0, 0, 1)" stroke-width="1.5"></path>
        <path d="M827.56 221.82L941.58 56.86" stroke="rgba(0, 0, 0, 1)" stroke-width="1.5"></path>
        <path d="M827.56 221.82L999.18 376.78" stroke="rgba(0, 0, 0, 1)" stroke-width="1.5"></path>
        <path d="M827.56 221.82L1110.98 220.28" stroke="rgba(0, 0, 0, 1)" stroke-width="1.5"></path>
        <path d="M843.1 355.86L843.1 355.86" stroke="rgba(0, 0, 0, 1)" stroke-width="1.5"></path>
        <path d="M802.14 525.31L802.14 525.31" stroke="rgba(0, 0, 0, 1)" stroke-width="1.5"></path>
        <path d="M802.14 525.31L803.85 661.86" stroke="rgba(0, 0, 0, 1)" stroke-width="1.5"></path>
        <path d="M803.85 661.86L803.85 661.86" stroke="rgba(0, 0, 0, 1)" stroke-width="1.5"></path>
        <path d="M790.8 838.23L790.8 838.23" stroke="rgba(0, 0, 0, 1)" stroke-width="1.5"></path>
        <path d="M790.8 838.23L803.85 661.86" stroke="rgba(0, 0, 0, 1)" stroke-width="1.5"></path>
        <path d="M790.8 838.23L674.82 672.4" stroke="rgba(0, 0, 0, 1)" stroke-width="1.5"></path>
        <path d="M790.8 838.23L997.41 801.33" stroke="rgba(0, 0, 0, 1)" stroke-width="1.5"></path>
        <path d="M790.8 838.23L1006.35 705.88" stroke="rgba(0, 0, 0, 1)" stroke-width="1.5"></path>
        <path d="M969.48 -64.17L969.48 -64.17" stroke="rgba(0, 0, 0, 1)" stroke-width="1.5"></path>
        <path d="M969.48 -64.17L941.58 56.86" stroke="rgba(0, 0, 0, 1)" stroke-width="1.5"></path>
        <path d="M969.48 -64.17L1127.5 -79.63" stroke="rgba(0, 0, 0, 1)" stroke-width="1.5"></path>
        <path d="M969.48 -64.17L1114.92 66.37" stroke="rgba(0, 0, 0, 1)" stroke-width="1.5"></path>
        <path d="M969.48 -64.17L950.64 197.98" stroke="rgba(0, 0, 0, 1)" stroke-width="1.5"></path>
        <path d="M941.58 56.86L941.58 56.86" stroke="rgba(0, 0, 0, 1)" stroke-width="1.5"></path>
        <path d="M941.58 56.86L950.64 197.98" stroke="rgba(0, 0, 0, 1)" stroke-width="1.5"></path>
        <path d="M941.58 56.86L1114.92 66.37" stroke="rgba(0, 0, 0, 1)" stroke-width="1.5"></path>
        <path d="M950.64 197.98L950.64 197.98" stroke="rgba(0, 0, 0, 1)" stroke-width="1.5"></path>
        <path d="M950.64 197.98L1110.98 220.28" stroke="rgba(0, 0, 0, 1)" stroke-width="1.5"></path>
        <path d="M950.64 197.98L999.18 376.78" stroke="rgba(0, 0, 0, 1)" stroke-width="1.5"></path>
        <path d="M999.18 376.78L999.18 376.78" stroke="rgba(0, 0, 0, 1)" stroke-width="1.5"></path>
        <path d="M999.18 376.78L986.84 511.94" stroke="rgba(0, 0, 0, 1)" stroke-width="1.5"></path>
        <path d="M999.18 376.78L843.1 355.86" stroke="rgba(0, 0, 0, 1)" stroke-width="1.5"></path>
        <path d="M999.18 376.78L1156.49 406.1" stroke="rgba(0, 0, 0, 1)" stroke-width="1.5"></path>
        <path d="M999.18 376.78L1111.16 519.08" stroke="rgba(0, 0, 0, 1)" stroke-width="1.5"></path>
        <path d="M986.84 511.94L986.84 511.94" stroke="rgba(0, 0, 0, 1)" stroke-width="1.5"></path>
        <path d="M986.84 511.94L1111.16 519.08" stroke="rgba(0, 0, 0, 1)" stroke-width="1.5"></path>
        <path d="M1006.35 705.88L1006.35 705.88" stroke="rgba(0, 0, 0, 1)" stroke-width="1.5"></path>
        <path d="M1006.35 705.88L997.41 801.33" stroke="rgba(0, 0, 0, 1)" stroke-width="1.5"></path>
        <path d="M1006.35 705.88L1096.09 651.48" stroke="rgba(0, 0, 0, 1)" stroke-width="1.5"></path>
        <path d="M1006.35 705.88L1101.78 838.8" stroke="rgba(0, 0, 0, 1)" stroke-width="1.5"></path>
        <path d="M1006.35 705.88L986.84 511.94" stroke="rgba(0, 0, 0, 1)" stroke-width="1.5"></path>
        <path d="M1006.35 705.88L803.85 661.86" stroke="rgba(0, 0, 0, 1)" stroke-width="1.5"></path>
        <path d="M997.41 801.33L997.41 801.33" stroke="rgba(0, 0, 0, 1)" stroke-width="1.5"></path>
        <path d="M997.41 801.33L1101.78 838.8" stroke="rgba(0, 0, 0, 1)" stroke-width="1.5"></path>
        <path d="M997.41 801.33L1096.09 651.48" stroke="rgba(0, 0, 0, 1)" stroke-width="1.5"></path>
        <path d="M997.41 801.33L803.85 661.86" stroke="rgba(0, 0, 0, 1)" stroke-width="1.5"></path>
        <path d="M997.41 801.33L1241.13 818.95" stroke="rgba(0, 0, 0, 1)" stroke-width="1.5"></path>
        <path d="M1127.5 -79.63L1127.5 -79.63" stroke="rgba(0, 0, 0, 1)" stroke-width="1.5"></path>
        <path d="M1127.5 -79.63L1114.92 66.37" stroke="rgba(0, 0, 0, 1)" stroke-width="1.5"></path>
        <path d="M1127.5 -79.63L1295.67 -106.86" stroke="rgba(0, 0, 0, 1)" stroke-width="1.5"></path>
        <path d="M1127.5 -79.63L1285.14 55.54" stroke="rgba(0, 0, 0, 1)" stroke-width="1.5"></path>
        <path d="M1127.5 -79.63L941.58 56.86" stroke="rgba(0, 0, 0, 1)" stroke-width="1.5"></path>
        <path d="M1127.5 -79.63L1391.2 -72.19" stroke="rgba(0, 0, 0, 1)" stroke-width="1.5"></path>
        <path d="M1114.92 66.37L1114.92 66.37" stroke="rgba(0, 0, 0, 1)" stroke-width="1.5"></path>
        <path d="M1114.92 66.37L1110.98 220.28" stroke="rgba(0, 0, 0, 1)" stroke-width="1.5"></path>
        <path d="M1114.92 66.37L1285.14 55.54" stroke="rgba(0, 0, 0, 1)" stroke-width="1.5"></path>
        <path d="M1110.98 220.28L1110.98 220.28" stroke="rgba(0, 0, 0, 1)" stroke-width="1.5"></path>
        <path d="M1110.98 220.28L1290.96 189.1" stroke="rgba(0, 0, 0, 1)" stroke-width="1.5"></path>
        <path d="M1110.98 220.28L1156.49 406.1" stroke="rgba(0, 0, 0, 1)" stroke-width="1.5"></path>
        <path d="M1156.49 406.1L1156.49 406.1" stroke="rgba(0, 0, 0, 1)" stroke-width="1.5"></path>
        <path d="M1156.49 406.1L1111.16 519.08" stroke="rgba(0, 0, 0, 1)" stroke-width="1.5"></path>
        <path d="M1156.49 406.1L1276.88 375.32" stroke="rgba(0, 0, 0, 1)" stroke-width="1.5"></path>
        <path d="M1111.16 519.08L1111.16 519.08" stroke="rgba(0, 0, 0, 1)" stroke-width="1.5"></path>
        <path d="M1096.09 651.48L1096.09 651.48" stroke="rgba(0, 0, 0, 1)" stroke-width="1.5"></path>
        <path d="M1096.09 651.48L1111.16 519.08" stroke="rgba(0, 0, 0, 1)" stroke-width="1.5"></path>
        <path d="M1096.09 651.48L986.84 511.94" stroke="rgba(0, 0, 0, 1)" stroke-width="1.5"></path>
        <path d="M1101.78 838.8L1101.78 838.8" stroke="rgba(0, 0, 0, 1)" stroke-width="1.5"></path>
        <path d="M1101.78 838.8L1241.13 818.95" stroke="rgba(0, 0, 0, 1)" stroke-width="1.5"></path>
        <path d="M1295.67 -106.86L1295.67 -106.86" stroke="rgba(0, 0, 0, 1)" stroke-width="1.5"></path>
        <path d="M1295.67 -106.86L1391.2 -72.19" stroke="rgba(0, 0, 0, 1)" stroke-width="1.5"></path>
        <path d="M1295.67 -106.86L1285.14 55.54" stroke="rgba(0, 0, 0, 1)" stroke-width="1.5"></path>
        <path d="M1295.67 -106.86L1114.92 66.37" stroke="rgba(0, 0, 0, 1)" stroke-width="1.5"></path>
        <path d="M1285.14 55.54L1285.14 55.54" stroke="rgba(0, 0, 0, 1)" stroke-width="1.5"></path>
        <path d="M1285.14 55.54L1290.96 189.1" stroke="rgba(0, 0, 0, 1)" stroke-width="1.5"></path>
        <path d="M1290.96 189.1L1290.96 189.1" stroke="rgba(0, 0, 0, 1)" stroke-width="1.5"></path>
        <path d="M1290.96 189.1L1416.48 245.58" stroke="rgba(0, 0, 0, 1)" stroke-width="1.5"></path>
        <path d="M1276.88 375.32L1276.88 375.32" stroke="rgba(0, 0, 0, 1)" stroke-width="1.5"></path>
        <path d="M1276.88 375.32L1437.87 405.69" stroke="rgba(0, 0, 0, 1)" stroke-width="1.5"></path>
        <path d="M1276.88 375.32L1290.96 189.1" stroke="rgba(0, 0, 0, 1)" stroke-width="1.5"></path>
        <path d="M1276.88 375.32L1416.48 245.58" stroke="rgba(0, 0, 0, 1)" stroke-width="1.5"></path>
        <path d="M1276.88 375.32L1111.16 519.08" stroke="rgba(0, 0, 0, 1)" stroke-width="1.5"></path>
        <path d="M1274.16 656.66L1274.16 656.66" stroke="rgba(0, 0, 0, 1)" stroke-width="1.5"></path>
        <path d="M1274.16 656.66L1423.33 704.54" stroke="rgba(0, 0, 0, 1)" stroke-width="1.5"></path>
        <path d="M1274.16 656.66L1241.13 818.95" stroke="rgba(0, 0, 0, 1)" stroke-width="1.5"></path>
        <path d="M1241.13 818.95L1241.13 818.95" stroke="rgba(0, 0, 0, 1)" stroke-width="1.5"></path>
        <path d="M1241.13 818.95L1428.22 855.29" stroke="rgba(0, 0, 0, 1)" stroke-width="1.5"></path>
        <path d="M1391.2 -72.19L1391.2 -72.19" stroke="rgba(0, 0, 0, 1)" stroke-width="1.5"></path>
        <path d="M1391.2 -72.19L1285.14 55.54" stroke="rgba(0, 0, 0, 1)" stroke-width="1.5"></path>
        <path d="M1391.2 -72.19L1461.87 102.31" stroke="rgba(0, 0, 0, 1)" stroke-width="1.5"></path>
        <path d="M1461.87 102.31L1461.87 102.31" stroke="rgba(0, 0, 0, 1)" stroke-width="1.5"></path>
        <path d="M1461.87 102.31L1546.14 47.85" stroke="rgba(0, 0, 0, 1)" stroke-width="1.5"></path>
        <path d="M1461.87 102.31L1559.39 208.25" stroke="rgba(0, 0, 0, 1)" stroke-width="1.5"></path>
        <path d="M1416.48 245.58L1416.48 245.58" stroke="rgba(0, 0, 0, 1)" stroke-width="1.5"></path>
        <path d="M1416.48 245.58L1559.39 208.25" stroke="rgba(0, 0, 0, 1)" stroke-width="1.5"></path>
        <path d="M1416.48 245.58L1461.87 102.31" stroke="rgba(0, 0, 0, 1)" stroke-width="1.5"></path>
        <path d="M1416.48 245.58L1437.87 405.69" stroke="rgba(0, 0, 0, 1)" stroke-width="1.5"></path>
        <path d="M1437.87 405.69L1437.87 405.69" stroke="rgba(0, 0, 0, 1)" stroke-width="1.5"></path>
        <path d="M1437.87 405.69L1546.42 490.68" stroke="rgba(0, 0, 0, 1)" stroke-width="1.5"></path>
        <path d="M1437.87 405.69L1431.6 556.17" stroke="rgba(0, 0, 0, 1)" stroke-width="1.5"></path>
        <path d="M1431.6 556.17L1431.6 556.17" stroke="rgba(0, 0, 0, 1)" stroke-width="1.5"></path>
        <path d="M1431.6 556.17L1546.42 490.68" stroke="rgba(0, 0, 0, 1)" stroke-width="1.5"></path>
        <path d="M1431.6 556.17L1423.33 704.54" stroke="rgba(0, 0, 0, 1)" stroke-width="1.5"></path>
        <path d="M1431.6 556.17L1549.23 651.25" stroke="rgba(0, 0, 0, 1)" stroke-width="1.5"></path>
        <path d="M1431.6 556.17L1274.16 656.66" stroke="rgba(0, 0, 0, 1)" stroke-width="1.5"></path>
        <path d="M1423.33 704.54L1423.33 704.54" stroke="rgba(0, 0, 0, 1)" stroke-width="1.5"></path>
        <path d="M1423.33 704.54L1549.23 651.25" stroke="rgba(0, 0, 0, 1)" stroke-width="1.5"></path>
        <path d="M1428.22 855.29L1428.22 855.29" stroke="rgba(0, 0, 0, 1)" stroke-width="1.5"></path>
        <path d="M1428.22 855.29L1541.51 802.19" stroke="rgba(0, 0, 0, 1)" stroke-width="1.5"></path>
        <path d="M1608.29 -74.91L1608.29 -74.91" stroke="rgba(0, 0, 0, 1)" stroke-width="1.5"></path>
        <path d="M1608.29 -74.91L1546.14 47.85" stroke="rgba(0, 0, 0, 1)" stroke-width="1.5"></path>
        <path d="M1608.29 -74.91L1391.2 -72.19" stroke="rgba(0, 0, 0, 1)" stroke-width="1.5"></path>
        <path d="M1608.29 -74.91L1461.87 102.31" stroke="rgba(0, 0, 0, 1)" stroke-width="1.5"></path>
        <path d="M1608.29 -74.91L1559.39 208.25" stroke="rgba(0, 0, 0, 1)" stroke-width="1.5"></path>
        <path d="M1608.29 -74.91L1295.67 -106.86" stroke="rgba(0, 0, 0, 1)" stroke-width="1.5"></path>
        <path d="M1546.14 47.85L1546.14 47.85" stroke="rgba(0, 0, 0, 1)" stroke-width="1.5"></path>
        <path d="M1546.14 47.85L1559.39 208.25" stroke="rgba(0, 0, 0, 1)" stroke-width="1.5"></path>
        <path d="M1546.14 47.85L1391.2 -72.19" stroke="rgba(0, 0, 0, 1)" stroke-width="1.5"></path>
        <path d="M1546.14 47.85L1416.48 245.58" stroke="rgba(0, 0, 0, 1)" stroke-width="1.5"></path>
        <path d="M1559.39 208.25L1559.39 208.25" stroke="rgba(0, 0, 0, 1)" stroke-width="1.5"></path>
        <path d="M1559.39 208.25L1597.63 339.57" stroke="rgba(0, 0, 0, 1)" stroke-width="1.5"></path>
        <path d="M1559.39 208.25L1437.87 405.69" stroke="rgba(0, 0, 0, 1)" stroke-width="1.5"></path>
        <path d="M1597.63 339.57L1597.63 339.57" stroke="rgba(0, 0, 0, 1)" stroke-width="1.5"></path>
        <path d="M1597.63 339.57L1546.42 490.68" stroke="rgba(0, 0, 0, 1)" stroke-width="1.5"></path>
        <path d="M1597.63 339.57L1437.87 405.69" stroke="rgba(0, 0, 0, 1)" stroke-width="1.5"></path>
        <path d="M1597.63 339.57L1416.48 245.58" stroke="rgba(0, 0, 0, 1)" stroke-width="1.5"></path>
        <path d="M1546.42 490.68L1546.42 490.68" stroke="rgba(0, 0, 0, 1)" stroke-width="1.5"></path>
        <path d="M1546.42 490.68L1549.23 651.25" stroke="rgba(0, 0, 0, 1)" stroke-width="1.5"></path>
        <path d="M1546.42 490.68L1423.33 704.54" stroke="rgba(0, 0, 0, 1)" stroke-width="1.5"></path>
        <path d="M1549.23 651.25L1549.23 651.25" stroke="rgba(0, 0, 0, 1)" stroke-width="1.5"></path>
        <path d="M1549.23 651.25L1541.51 802.19" stroke="rgba(0, 0, 0, 1)" stroke-width="1.5"></path>
        <path d="M1541.51 802.19L1541.51 802.19" stroke="rgba(0, 0, 0, 1)" stroke-width="1.5"></path>
        <path d="M1541.51 802.19L1423.33 704.54" stroke="rgba(0, 0, 0, 1)" stroke-width="1.5"></path>
        <path d="M1541.51 802.19L1431.6 556.17" stroke="rgba(0, 0, 0, 1)" stroke-width="1.5"></path>
        <path d="M1541.51 802.19L1241.13 818.95" stroke="rgba(0, 0, 0, 1)" stroke-width="1.5"></path>
        <circle r="5" cx="-86.12" cy="487.54" fill="rgba(0, 0, 0, 1)"></circle>
        <circle r="5" cx="-57.05" cy="702.88" fill="rgba(0, 0, 0, 1)"></circle>
        <circle r="5" cx="-99.58" cy="792.71" fill="rgba(0, 0, 0, 1)"></circle>
        <circle r="5" cx="43.69" cy="502.76" fill="rgba(0, 0, 0, 1)"></circle>
        <circle r="5" cx="109.48" cy="671.49" fill="rgba(0, 0, 0, 1)"></circle>
        <circle r="5" cx="90.7" cy="787.75" fill="rgba(0, 0, 0, 1)"></circle>
        <circle r="5" cx="207.94" cy="554.37" fill="rgba(0, 0, 0, 1)"></circle>
        <circle r="5" cx="191.02" cy="643.88" fill="rgba(0, 0, 0, 1)"></circle>
        <circle r="5" cx="242.11" cy="836.81" fill="rgba(0, 0, 0, 1)"></circle>
        <circle r="5" cx="395.94" cy="524.57" fill="rgba(0, 0, 0, 1)"></circle>
        <circle r="5" cx="376.67" cy="669.89" fill="rgba(0, 0, 0, 1)"></circle>
        <circle r="5" cx="355.37" cy="823.87" fill="rgba(0, 0, 0, 1)"></circle>
        <circle r="5" cx="529.78" cy="505.07" fill="rgba(0, 0, 0, 1)"></circle>
        <circle r="5" cx="492.6" cy="640.35" fill="rgba(0, 0, 0, 1)"></circle>
        <circle r="5" cx="534.2" cy="832.63" fill="rgba(0, 0, 0, 1)"></circle>
        <circle r="5" cx="703.7" cy="338.04" fill="rgba(0, 0, 0, 1)"></circle>
        <circle r="5" cx="688.14" cy="514.88" fill="rgba(0, 0, 0, 1)"></circle>
        <circle r="5" cx="674.82" cy="672.4" fill="rgba(0, 0, 0, 1)"></circle>
        <circle r="5" cx="649.87" cy="828.98" fill="rgba(0, 0, 0, 1)"></circle>
        <circle r="5" cx="827.56" cy="221.82" fill="rgba(0, 0, 0, 1)"></circle>
        <circle r="5" cx="843.1" cy="355.86" fill="rgba(0, 0, 0, 1)"></circle>
        <circle r="5" cx="802.14" cy="525.31" fill="rgba(0, 0, 0, 1)"></circle>
        <circle r="5" cx="803.85" cy="661.86" fill="rgba(0, 0, 0, 1)"></circle>
        <circle r="5" cx="790.8" cy="838.23" fill="rgba(0, 0, 0, 1)"></circle>
        <circle r="5" cx="969.48" cy="-64.17" fill="rgba(0, 0, 0, 1)"></circle>
        <circle r="5" cx="941.58" cy="56.86" fill="rgba(0, 0, 0, 1)"></circle>
        <circle r="5" cx="950.64" cy="197.98" fill="rgba(0, 0, 0, 1)"></circle>
        <circle r="5" cx="999.18" cy="376.78" fill="rgba(0, 0, 0, 1)"></circle>
        <circle r="5" cx="986.84" cy="511.94" fill="rgba(0, 0, 0, 1)"></circle>
        <circle r="5" cx="1006.35" cy="705.88" fill="rgba(0, 0, 0, 1)"></circle>
        <circle r="5" cx="997.41" cy="801.33" fill="rgba(0, 0, 0, 1)"></circle>
        <circle r="5" cx="1127.5" cy="-79.63" fill="rgba(0, 0, 0, 1)"></circle>
        <circle r="5" cx="1114.92" cy="66.37" fill="rgba(0, 0, 0, 1)"></circle>
        <circle r="5" cx="1110.98" cy="220.28" fill="rgba(0, 0, 0, 1)"></circle>
        <circle r="5" cx="1156.49" cy="406.1" fill="rgba(0, 0, 0, 1)"></circle>
        <circle r="5" cx="1111.16" cy="519.08" fill="rgba(0, 0, 0, 1)"></circle>
        <circle r="5" cx="1096.09" cy="651.48" fill="rgba(0, 0, 0, 1)"></circle>
        <circle r="5" cx="1101.78" cy="838.8" fill="rgba(0, 0, 0, 1)"></circle>
        <circle r="5" cx="1295.67" cy="-106.86" fill="rgba(0, 0, 0, 1)"></circle>
        <circle r="5" cx="1285.14" cy="55.54" fill="rgba(0, 0, 0, 1)"></circle>
        <circle r="5" cx="1290.96" cy="189.1" fill="rgba(0, 0, 0, 1)"></circle>
        <circle r="5" cx="1276.88" cy="375.32" fill="rgba(0, 0, 0, 1)"></circle>
        <circle r="5" cx="1274.16" cy="656.66" fill="rgba(0, 0, 0, 1)"></circle>
        <circle r="5" cx="1241.13" cy="818.95" fill="rgba(0, 0, 0, 1)"></circle>
        <circle r="5" cx="1391.2" cy="-72.19" fill="rgba(0, 0, 0, 1)"></circle>
        <circle r="5" cx="1461.87" cy="102.31" fill="rgba(0, 0, 0, 1)"></circle>
        <circle r="5" cx="1416.48" cy="245.58" fill="rgba(0, 0, 0, 1)"></circle>
        <circle r="5" cx="1437.87" cy="405.69" fill="rgba(0, 0, 0, 1)"></circle>
        <circle r="5" cx="1431.6" cy="556.17" fill="rgba(0, 0, 0, 1)"></circle>
        <circle r="5" cx="1423.33" cy="704.54" fill="rgba(0, 0, 0, 1)"></circle>
        <circle r="5" cx="1428.22" cy="855.29" fill="rgba(0, 0, 0, 1)"></circle>
        <circle r="5" cx="1608.29" cy="-74.91" fill="rgba(0, 0, 0, 1)"></circle>
        <circle r="5" cx="1546.14" cy="47.85" fill="rgba(0, 0, 0, 1)"></circle>
        <circle r="5" cx="1559.39" cy="208.25" fill="rgba(0, 0, 0, 1)"></circle>
        <circle r="5" cx="1597.63" cy="339.57" fill="rgba(0, 0, 0, 1)"></circle>
        <circle r="5" cx="1546.42" cy="490.68" fill="rgba(0, 0, 0, 1)"></circle>
        <circle r="5" cx="1549.23" cy="651.25" fill="rgba(0, 0, 0, 1)"></circle>
        <circle r="5" cx="1541.51" cy="802.19" fill="rgba(0, 0, 0, 1)"></circle>
        <path d="M72.45 661.91L72.45 661.91" stroke="hsl(0, 0%, 0%)" stroke-width="1.5"></path>
        <path d="M72.45 661.91L65.01 796.93" stroke="hsl(0, 0%, 0%)" stroke-width="1.5"></path>
        <path d="M72.45 661.91L223.65 652.48" stroke="hsl(0, 0%, 0%)" stroke-width="1.5"></path>
        <path d="M72.45 661.91L-104.75 704.84" stroke="hsl(0, 0%, 0%)" stroke-width="1.5"></path>
        <path d="M72.45 661.91L-75.35 858.08" stroke="hsl(0, 0%, 0%)" stroke-width="1.5"></path>
        <path d="M72.45 661.91L245.9 853.5" stroke="hsl(0, 0%, 0%)" stroke-width="1.5"></path>
        <path d="M72.45 661.91L379.07 672.43" stroke="hsl(0, 0%, 0%)" stroke-width="1.5"></path>
        <path d="M65.01 796.93L65.01 796.93" stroke="hsl(0, 0%, 0%)" stroke-width="1.5"></path>
        <path d="M65.01 796.93L-75.35 858.08" stroke="hsl(0, 0%, 0%)" stroke-width="1.5"></path>
        <path d="M65.01 796.93L245.9 853.5" stroke="hsl(0, 0%, 0%)" stroke-width="1.5"></path>
        <path d="M544.54 538.16L544.54 538.16" stroke="hsl(0, 0%, 0%)" stroke-width="1.5"></path>
        <path d="M544.54 538.16L667.76 542.98" stroke="hsl(0, 0%, 0%)" stroke-width="1.5"></path>
        <path d="M544.54 538.16L512.44 670.01" stroke="hsl(0, 0%, 0%)" stroke-width="1.5"></path>
        <path d="M544.54 538.16L666.58 647.26" stroke="hsl(0, 0%, 0%)" stroke-width="1.5"></path>
        <path d="M544.54 538.16L379.07 672.43" stroke="hsl(0, 0%, 0%)" stroke-width="1.5"></path>
        <path d="M544.54 538.16L805.65 560.61" stroke="hsl(0, 0%, 0%)" stroke-width="1.5"></path>
        <path d="M544.54 538.16L512.98 822.88" stroke="hsl(0, 0%, 0%)" stroke-width="1.5"></path>
        <path d="M692 832.5L692 832.5" stroke="hsl(0, 0%, 0%)" stroke-width="1.5"></path>
        <path d="M692 832.5L817.54 813.53" stroke="hsl(0, 0%, 0%)" stroke-width="1.5"></path>
        <path d="M692 832.5L512.98 822.88" stroke="hsl(0, 0%, 0%)" stroke-width="1.5"></path>
        <path d="M692 832.5L666.58 647.26" stroke="hsl(0, 0%, 0%)" stroke-width="1.5"></path>
        <path d="M692 832.5L825.57 677.08" stroke="hsl(0, 0%, 0%)" stroke-width="1.5"></path>
        <path d="M805.65 560.61L805.65 560.61" stroke="hsl(0, 0%, 0%)" stroke-width="1.5"></path>
        <path d="M805.65 560.61L825.57 677.08" stroke="hsl(0, 0%, 0%)" stroke-width="1.5"></path>
        <path d="M805.65 560.61L667.76 542.98" stroke="hsl(0, 0%, 0%)" stroke-width="1.5"></path>
        <path d="M805.65 560.61L666.58 647.26" stroke="hsl(0, 0%, 0%)" stroke-width="1.5"></path>
        <path d="M805.65 560.61L958.5 494.07" stroke="hsl(0, 0%, 0%)" stroke-width="1.5"></path>
        <path d="M805.65 560.61L952.74 412.08" stroke="hsl(0, 0%, 0%)" stroke-width="1.5"></path>
        <path d="M805.65 560.61L1009.39 704.04" stroke="hsl(0, 0%, 0%)" stroke-width="1.5"></path>
        <path d="M825.57 677.08L825.57 677.08" stroke="hsl(0, 0%, 0%)" stroke-width="1.5"></path>
        <path d="M825.57 677.08L817.54 813.53" stroke="hsl(0, 0%, 0%)" stroke-width="1.5"></path>
        <path d="M1009.39 704.04L1009.39 704.04" stroke="hsl(0, 0%, 0%)" stroke-width="1.5"></path>
        <path d="M1009.39 704.04L1097.47 650.96" stroke="hsl(0, 0%, 0%)" stroke-width="1.5"></path>
        <path d="M1009.39 704.04L942.47 801.62" stroke="hsl(0, 0%, 0%)" stroke-width="1.5"></path>
        <path d="M1009.39 704.04L1100.55 841.57" stroke="hsl(0, 0%, 0%)" stroke-width="1.5"></path>
        <path d="M1009.39 704.04L825.57 677.08" stroke="hsl(0, 0%, 0%)" stroke-width="1.5"></path>
        <path d="M1147.27 400.69L1147.27 400.69" stroke="hsl(0, 0%, 0%)" stroke-width="1.5"></path>
        <path d="M1147.27 400.69L1095.25 517.47" stroke="hsl(0, 0%, 0%)" stroke-width="1.5"></path>
        <path d="M1147.27 400.69L1270.6 493.43" stroke="hsl(0, 0%, 0%)" stroke-width="1.5"></path>
        <path d="M1147.27 400.69L1302.39 397.34" stroke="hsl(0, 0%, 0%)" stroke-width="1.5"></path>
        <path d="M1147.27 400.69L952.74 412.08" stroke="hsl(0, 0%, 0%)" stroke-width="1.5"></path>
        <path d="M1147.27 400.69L958.5 494.07" stroke="hsl(0, 0%, 0%)" stroke-width="1.5"></path>
        <path d="M1277.49 -111.67L1277.49 -111.67" stroke="hsl(0, 0%, 0%)" stroke-width="1.5"></path>
        <path d="M1277.49 -111.67L1290.23 38.81" stroke="hsl(0, 0%, 0%)" stroke-width="1.5"></path>
        <path d="M1277.49 -111.67L1447.25 -47.47" stroke="hsl(0, 0%, 0%)" stroke-width="1.5"></path>
        <path d="M1277.49 -111.67L1159.29 73.18" stroke="hsl(0, 0%, 0%)" stroke-width="1.5"></path>
        <path d="M1427.01 391.33L1427.01 391.33" stroke="hsl(0, 0%, 0%)" stroke-width="1.5"></path>
        <path d="M1427.01 391.33L1547.61 368.31" stroke="hsl(0, 0%, 0%)" stroke-width="1.5"></path>
        <path d="M1427.01 391.33L1302.39 397.34" stroke="hsl(0, 0%, 0%)" stroke-width="1.5"></path>
        <path d="M1427.01 391.33L1430.45 519.75" stroke="hsl(0, 0%, 0%)" stroke-width="1.5"></path>
        <path d="M1427.01 391.33L1390.54 213.63" stroke="hsl(0, 0%, 0%)" stroke-width="1.5"></path>
        <path d="M1427.01 391.33L1270.6 493.43" stroke="hsl(0, 0%, 0%)" stroke-width="1.5"></path>
        <path d="M-104.75 704.84L-104.75 704.84" stroke="hsl(0, 0%, 0%)" stroke-width="1.5"></path>
        <path d="M-104.75 704.84L-75.35 858.08" stroke="hsl(0, 0%, 0%)" stroke-width="1.5"></path>
        <path d="M-104.75 704.84L65.01 796.93" stroke="hsl(0, 0%, 0%)" stroke-width="1.5"></path>
        <path d="M-75.35 858.08L-75.35 858.08" stroke="hsl(0, 0%, 0%)" stroke-width="1.5"></path>
        <path d="M-75.35 858.08L245.9 853.5" stroke="hsl(0, 0%, 0%)" stroke-width="1.5"></path>
        <path d="M-75.35 858.08L223.65 652.48" stroke="hsl(0, 0%, 0%)" stroke-width="1.5"></path>
        <path d="M-75.35 858.08L343.75 855.88" stroke="hsl(0, 0%, 0%)" stroke-width="1.5"></path>
        <path d="M223.65 652.48L223.65 652.48" stroke="hsl(0, 0%, 0%)" stroke-width="1.5"></path>
        <path d="M223.65 652.48L379.07 672.43" stroke="hsl(0, 0%, 0%)" stroke-width="1.5"></path>
        <path d="M223.65 652.48L245.9 853.5" stroke="hsl(0, 0%, 0%)" stroke-width="1.5"></path>
        <path d="M223.65 652.48L65.01 796.93" stroke="hsl(0, 0%, 0%)" stroke-width="1.5"></path>
        <path d="M223.65 652.48L343.75 855.88" stroke="hsl(0, 0%, 0%)" stroke-width="1.5"></path>
        <path d="M223.65 652.48L512.44 670.01" stroke="hsl(0, 0%, 0%)" stroke-width="1.5"></path>
        <path d="M245.9 853.5L245.9 853.5" stroke="hsl(0, 0%, 0%)" stroke-width="1.5"></path>
        <path d="M245.9 853.5L343.75 855.88" stroke="hsl(0, 0%, 0%)" stroke-width="1.5"></path>
        <path d="M245.9 853.5L379.07 672.43" stroke="hsl(0, 0%, 0%)" stroke-width="1.5"></path>
        <path d="M245.9 853.5L512.98 822.88" stroke="hsl(0, 0%, 0%)" stroke-width="1.5"></path>
        <path d="M379.07 672.43L379.07 672.43" stroke="hsl(0, 0%, 0%)" stroke-width="1.5"></path>
        <path d="M379.07 672.43L512.44 670.01" stroke="hsl(0, 0%, 0%)" stroke-width="1.5"></path>
        <path d="M343.75 855.88L343.75 855.88" stroke="hsl(0, 0%, 0%)" stroke-width="1.5"></path>
        <path d="M343.75 855.88L512.98 822.88" stroke="hsl(0, 0%, 0%)" stroke-width="1.5"></path>
        <path d="M343.75 855.88L379.07 672.43" stroke="hsl(0, 0%, 0%)" stroke-width="1.5"></path>
        <path d="M343.75 855.88L512.44 670.01" stroke="hsl(0, 0%, 0%)" stroke-width="1.5"></path>
        <path d="M512.44 670.01L512.44 670.01" stroke="hsl(0, 0%, 0%)" stroke-width="1.5"></path>
        <path d="M512.44 670.01L512.98 822.88" stroke="hsl(0, 0%, 0%)" stroke-width="1.5"></path>
        <path d="M512.44 670.01L666.58 647.26" stroke="hsl(0, 0%, 0%)" stroke-width="1.5"></path>
        <path d="M512.98 822.88L512.98 822.88" stroke="hsl(0, 0%, 0%)" stroke-width="1.5"></path>
        <path d="M667.76 542.98L667.76 542.98" stroke="hsl(0, 0%, 0%)" stroke-width="1.5"></path>
        <path d="M667.76 542.98L666.58 647.26" stroke="hsl(0, 0%, 0%)" stroke-width="1.5"></path>
        <path d="M667.76 542.98L512.44 670.01" stroke="hsl(0, 0%, 0%)" stroke-width="1.5"></path>
        <path d="M667.76 542.98L825.57 677.08" stroke="hsl(0, 0%, 0%)" stroke-width="1.5"></path>
        <path d="M667.76 542.98L692 832.5" stroke="hsl(0, 0%, 0%)" stroke-width="1.5"></path>
        <path d="M666.58 647.26L666.58 647.26" stroke="hsl(0, 0%, 0%)" stroke-width="1.5"></path>
        <path d="M666.58 647.26L825.57 677.08" stroke="hsl(0, 0%, 0%)" stroke-width="1.5"></path>
        <path d="M817.54 813.53L817.54 813.53" stroke="hsl(0, 0%, 0%)" stroke-width="1.5"></path>
        <path d="M817.54 813.53L942.47 801.62" stroke="hsl(0, 0%, 0%)" stroke-width="1.5"></path>
        <path d="M817.54 813.53L1009.39 704.04" stroke="hsl(0, 0%, 0%)" stroke-width="1.5"></path>
        <path d="M952.74 412.08L952.74 412.08" stroke="hsl(0, 0%, 0%)" stroke-width="1.5"></path>
        <path d="M952.74 412.08L958.5 494.07" stroke="hsl(0, 0%, 0%)" stroke-width="1.5"></path>
        <path d="M952.74 412.08L1095.25 517.47" stroke="hsl(0, 0%, 0%)" stroke-width="1.5"></path>
        <path d="M952.74 412.08L1097.47 650.96" stroke="hsl(0, 0%, 0%)" stroke-width="1.5"></path>
        <path d="M952.74 412.08L825.57 677.08" stroke="hsl(0, 0%, 0%)" stroke-width="1.5"></path>
        <path d="M958.5 494.07L958.5 494.07" stroke="hsl(0, 0%, 0%)" stroke-width="1.5"></path>
        <path d="M958.5 494.07L1095.25 517.47" stroke="hsl(0, 0%, 0%)" stroke-width="1.5"></path>
        <path d="M958.5 494.07L1097.47 650.96" stroke="hsl(0, 0%, 0%)" stroke-width="1.5"></path>
        <path d="M942.47 801.62L942.47 801.62" stroke="hsl(0, 0%, 0%)" stroke-width="1.5"></path>
        <path d="M942.47 801.62L1100.55 841.57" stroke="hsl(0, 0%, 0%)" stroke-width="1.5"></path>
        <path d="M942.47 801.62L825.57 677.08" stroke="hsl(0, 0%, 0%)" stroke-width="1.5"></path>
        <path d="M942.47 801.62L1097.47 650.96" stroke="hsl(0, 0%, 0%)" stroke-width="1.5"></path>
        <path d="M1159.29 73.18L1159.29 73.18" stroke="hsl(0, 0%, 0%)" stroke-width="1.5"></path>
        <path d="M1159.29 73.18L1290.23 38.81" stroke="hsl(0, 0%, 0%)" stroke-width="1.5"></path>
        <path d="M1159.29 73.18L1299.78 248.94" stroke="hsl(0, 0%, 0%)" stroke-width="1.5"></path>
        <path d="M1159.29 73.18L1390.54 213.63" stroke="hsl(0, 0%, 0%)" stroke-width="1.5"></path>
        <path d="M1095.25 517.47L1095.25 517.47" stroke="hsl(0, 0%, 0%)" stroke-width="1.5"></path>
        <path d="M1095.25 517.47L1097.47 650.96" stroke="hsl(0, 0%, 0%)" stroke-width="1.5"></path>
        <path d="M1095.25 517.47L1270.6 493.43" stroke="hsl(0, 0%, 0%)" stroke-width="1.5"></path>
        <path d="M1097.47 650.96L1097.47 650.96" stroke="hsl(0, 0%, 0%)" stroke-width="1.5"></path>
        <path d="M1097.47 650.96L1260.37 700.38" stroke="hsl(0, 0%, 0%)" stroke-width="1.5"></path>
        <path d="M1100.55 841.57L1100.55 841.57" stroke="hsl(0, 0%, 0%)" stroke-width="1.5"></path>
        <path d="M1100.55 841.57L1258.46 844.74" stroke="hsl(0, 0%, 0%)" stroke-width="1.5"></path>
        <path d="M1290.23 38.81L1290.23 38.81" stroke="hsl(0, 0%, 0%)" stroke-width="1.5"></path>
        <path d="M1290.23 38.81L1453.35 104.89" stroke="hsl(0, 0%, 0%)" stroke-width="1.5"></path>
        <path d="M1299.78 248.94L1299.78 248.94" stroke="hsl(0, 0%, 0%)" stroke-width="1.5"></path>
        <path d="M1299.78 248.94L1390.54 213.63" stroke="hsl(0, 0%, 0%)" stroke-width="1.5"></path>
        <path d="M1299.78 248.94L1302.39 397.34" stroke="hsl(0, 0%, 0%)" stroke-width="1.5"></path>
        <path d="M1299.78 248.94L1427.01 391.33" stroke="hsl(0, 0%, 0%)" stroke-width="1.5"></path>
        <path d="M1299.78 248.94L1290.23 38.81" stroke="hsl(0, 0%, 0%)" stroke-width="1.5"></path>
        <path d="M1302.39 397.34L1302.39 397.34" stroke="hsl(0, 0%, 0%)" stroke-width="1.5"></path>
        <path d="M1302.39 397.34L1270.6 493.43" stroke="hsl(0, 0%, 0%)" stroke-width="1.5"></path>
        <path d="M1270.6 493.43L1270.6 493.43" stroke="hsl(0, 0%, 0%)" stroke-width="1.5"></path>
        <path d="M1270.6 493.43L1430.45 519.75" stroke="hsl(0, 0%, 0%)" stroke-width="1.5"></path>
        <path d="M1260.37 700.38L1260.37 700.38" stroke="hsl(0, 0%, 0%)" stroke-width="1.5"></path>
        <path d="M1260.37 700.38L1258.46 844.74" stroke="hsl(0, 0%, 0%)" stroke-width="1.5"></path>
        <path d="M1260.37 700.38L1427.7 677.44" stroke="hsl(0, 0%, 0%)" stroke-width="1.5"></path>
        <path d="M1260.37 700.38L1404.79 804.96" stroke="hsl(0, 0%, 0%)" stroke-width="1.5"></path>
        <path d="M1258.46 844.74L1258.46 844.74" stroke="hsl(0, 0%, 0%)" stroke-width="1.5"></path>
        <path d="M1258.46 844.74L1404.79 804.96" stroke="hsl(0, 0%, 0%)" stroke-width="1.5"></path>
        <path d="M1258.46 844.74L1427.7 677.44" stroke="hsl(0, 0%, 0%)" stroke-width="1.5"></path>
        <path d="M1258.46 844.74L1097.47 650.96" stroke="hsl(0, 0%, 0%)" stroke-width="1.5"></path>
        <path d="M1258.46 844.74L1540.48 827.46" stroke="hsl(0, 0%, 0%)" stroke-width="1.5"></path>
        <path d="M1447.25 -47.47L1447.25 -47.47" stroke="hsl(0, 0%, 0%)" stroke-width="1.5"></path>
        <path d="M1447.25 -47.47L1586.9 -82.07" stroke="hsl(0, 0%, 0%)" stroke-width="1.5"></path>
        <path d="M1447.25 -47.47L1453.35 104.89" stroke="hsl(0, 0%, 0%)" stroke-width="1.5"></path>
        <path d="M1447.25 -47.47L1540.37 96.41" stroke="hsl(0, 0%, 0%)" stroke-width="1.5"></path>
        <path d="M1447.25 -47.47L1290.23 38.81" stroke="hsl(0, 0%, 0%)" stroke-width="1.5"></path>
        <path d="M1447.25 -47.47L1390.54 213.63" stroke="hsl(0, 0%, 0%)" stroke-width="1.5"></path>
        <path d="M1453.35 104.89L1453.35 104.89" stroke="hsl(0, 0%, 0%)" stroke-width="1.5"></path>
        <path d="M1453.35 104.89L1540.37 96.41" stroke="hsl(0, 0%, 0%)" stroke-width="1.5"></path>
        <path d="M1453.35 104.89L1390.54 213.63" stroke="hsl(0, 0%, 0%)" stroke-width="1.5"></path>
        <path d="M1453.35 104.89L1573.67 202.29" stroke="hsl(0, 0%, 0%)" stroke-width="1.5"></path>
        <path d="M1453.35 104.89L1299.78 248.94" stroke="hsl(0, 0%, 0%)" stroke-width="1.5"></path>
        <path d="M1390.54 213.63L1390.54 213.63" stroke="hsl(0, 0%, 0%)" stroke-width="1.5"></path>
        <path d="M1430.45 519.75L1430.45 519.75" stroke="hsl(0, 0%, 0%)" stroke-width="1.5"></path>
        <path d="M1430.45 519.75L1557.98 559.1" stroke="hsl(0, 0%, 0%)" stroke-width="1.5"></path>
        <path d="M1430.45 519.75L1427.7 677.44" stroke="hsl(0, 0%, 0%)" stroke-width="1.5"></path>
        <path d="M1430.45 519.75L1302.39 397.34" stroke="hsl(0, 0%, 0%)" stroke-width="1.5"></path>
        <path d="M1427.7 677.44L1427.7 677.44" stroke="hsl(0, 0%, 0%)" stroke-width="1.5"></path>
        <path d="M1427.7 677.44L1404.79 804.96" stroke="hsl(0, 0%, 0%)" stroke-width="1.5"></path>
        <path d="M1427.7 677.44L1556.59 653.75" stroke="hsl(0, 0%, 0%)" stroke-width="1.5"></path>
        <path d="M1404.79 804.96L1404.79 804.96" stroke="hsl(0, 0%, 0%)" stroke-width="1.5"></path>
        <path d="M1404.79 804.96L1540.48 827.46" stroke="hsl(0, 0%, 0%)" stroke-width="1.5"></path>
        <path d="M1404.79 804.96L1556.59 653.75" stroke="hsl(0, 0%, 0%)" stroke-width="1.5"></path>
        <path d="M1586.9 -82.07L1586.9 -82.07" stroke="hsl(0, 0%, 0%)" stroke-width="1.5"></path>
        <path d="M1586.9 -82.07L1540.37 96.41" stroke="hsl(0, 0%, 0%)" stroke-width="1.5"></path>
        <path d="M1586.9 -82.07L1453.35 104.89" stroke="hsl(0, 0%, 0%)" stroke-width="1.5"></path>
        <path d="M1586.9 -82.07L1573.67 202.29" stroke="hsl(0, 0%, 0%)" stroke-width="1.5"></path>
        <path d="M1586.9 -82.07L1277.49 -111.67" stroke="hsl(0, 0%, 0%)" stroke-width="1.5"></path>
        <path d="M1586.9 -82.07L1290.23 38.81" stroke="hsl(0, 0%, 0%)" stroke-width="1.5"></path>
        <path d="M1540.37 96.41L1540.37 96.41" stroke="hsl(0, 0%, 0%)" stroke-width="1.5"></path>
        <path d="M1573.67 202.29L1573.67 202.29" stroke="hsl(0, 0%, 0%)" stroke-width="1.5"></path>
        <path d="M1573.67 202.29L1540.37 96.41" stroke="hsl(0, 0%, 0%)" stroke-width="1.5"></path>
        <path d="M1573.67 202.29L1547.61 368.31" stroke="hsl(0, 0%, 0%)" stroke-width="1.5"></path>
        <path d="M1573.67 202.29L1390.54 213.63" stroke="hsl(0, 0%, 0%)" stroke-width="1.5"></path>
        <path d="M1547.61 368.31L1547.61 368.31" stroke="hsl(0, 0%, 0%)" stroke-width="1.5"></path>
        <path d="M1547.61 368.31L1557.98 559.1" stroke="hsl(0, 0%, 0%)" stroke-width="1.5"></path>
        <path d="M1547.61 368.31L1430.45 519.75" stroke="hsl(0, 0%, 0%)" stroke-width="1.5"></path>
        <path d="M1547.61 368.31L1390.54 213.63" stroke="hsl(0, 0%, 0%)" stroke-width="1.5"></path>
        <path d="M1547.61 368.31L1302.39 397.34" stroke="hsl(0, 0%, 0%)" stroke-width="1.5"></path>
        <path d="M1557.98 559.1L1557.98 559.1" stroke="hsl(0, 0%, 0%)" stroke-width="1.5"></path>
        <path d="M1557.98 559.1L1556.59 653.75" stroke="hsl(0, 0%, 0%)" stroke-width="1.5"></path>
        <path d="M1557.98 559.1L1427.7 677.44" stroke="hsl(0, 0%, 0%)" stroke-width="1.5"></path>
        <path d="M1557.98 559.1L1427.01 391.33" stroke="hsl(0, 0%, 0%)" stroke-width="1.5"></path>
        <path d="M1557.98 559.1L1540.48 827.46" stroke="hsl(0, 0%, 0%)" stroke-width="1.5"></path>
        <path d="M1556.59 653.75L1556.59 653.75" stroke="hsl(0, 0%, 0%)" stroke-width="1.5"></path>
        <path d="M1540.48 827.46L1540.48 827.46" stroke="hsl(0, 0%, 0%)" stroke-width="1.5"></path>
        <path d="M1540.48 827.46L1556.59 653.75" stroke="hsl(0, 0%, 0%)" stroke-width="1.5"></path>
        <circle r="25" cx="72.45" cy="661.91" fill="url(#SvgjsRadialGradient3189)"></circle>
        <circle r="25" cx="65.01" cy="796.93" fill="url(#SvgjsRadialGradient3189)"></circle>
        <circle r="25" cx="544.54" cy="538.16" fill="url(#SvgjsRadialGradient3189)"></circle>
        <circle r="25" cx="692" cy="832.5" fill="url(#SvgjsRadialGradient3189)"></circle>
        <circle r="25" cx="805.65" cy="560.61" fill="url(#SvgjsRadialGradient3189)"></circle>
        <circle r="25" cx="825.57" cy="677.08" fill="url(#SvgjsRadialGradient3189)"></circle>
        <circle r="25" cx="1009.39" cy="704.04" fill="url(#SvgjsRadialGradient3189)"></circle>
        <circle r="25" cx="1147.27" cy="400.69" fill="url(#SvgjsRadialGradient3189)"></circle>
        <circle r="25" cx="1277.49" cy="-111.67" fill="url(#SvgjsRadialGradient3189)"></circle>
        <circle r="25" cx="1427.01" cy="391.33" fill="url(#SvgjsRadialGradient3189)"></circle>
        <circle r="5" cx="-104.75" cy="704.84" fill="#808080"></circle>
        <circle r="5" cx="-75.35" cy="858.08" fill="#808080"></circle>
        <circle r="5" cx="223.65" cy="652.48" fill="#808080"></circle>
        <circle r="5" cx="245.9" cy="853.5" fill="#808080"></circle>
        <circle r="5" cx="379.07" cy="672.43" fill="#808080"></circle>
        <circle r="5" cx="343.75" cy="855.88" fill="#808080"></circle>
        <circle r="5" cx="512.44" cy="670.01" fill="#808080"></circle>
        <circle r="5" cx="512.98" cy="822.88" fill="#808080"></circle>
        <circle r="5" cx="667.76" cy="542.98" fill="#808080"></circle>
        <circle r="5" cx="666.58" cy="647.26" fill="#808080"></circle>
        <circle r="5" cx="817.54" cy="813.53" fill="#808080"></circle>
        <circle r="5" cx="952.74" cy="412.08" fill="#808080"></circle>
        <circle r="5" cx="958.5" cy="494.07" fill="#808080"></circle>
        <circle r="5" cx="942.47" cy="801.62" fill="#808080"></circle>
        <circle r="5" cx="1159.29" cy="73.18" fill="#808080"></circle>
        <circle r="5" cx="1095.25" cy="517.47" fill="#808080"></circle>
        <circle r="5" cx="1097.47" cy="650.96" fill="#808080"></circle>
        <circle r="5" cx="1100.55" cy="841.57" fill="#808080"></circle>
        <circle r="5" cx="1290.23" cy="38.81" fill="#808080"></circle>
        <circle r="5" cx="1299.78" cy="248.94" fill="#808080"></circle>
        <circle r="5" cx="1302.39" cy="397.34" fill="#808080"></circle>
        <circle r="5" cx="1270.6" cy="493.43" fill="#808080"></circle>
        <circle r="5" cx="1260.37" cy="700.38" fill="#808080"></circle>
        <circle r="5" cx="1258.46" cy="844.74" fill="#808080"></circle>
        <circle r="5" cx="1447.25" cy="-47.47" fill="#808080"></circle>
        <circle r="5" cx="1453.35" cy="104.89" fill="#808080"></circle>
        <circle r="5" cx="1390.54" cy="213.63" fill="#808080"></circle>
        <circle r="5" cx="1430.45" cy="519.75" fill="#808080"></circle>
        <circle r="5" cx="1427.7" cy="677.44" fill="#808080"></circle>
        <circle r="5" cx="1404.79" cy="804.96" fill="#808080"></circle>
        <circle r="5" cx="1586.9" cy="-82.07" fill="#808080"></circle>
        <circle r="5" cx="1540.37" cy="96.41" fill="#808080"></circle>
        <circle r="5" cx="1573.67" cy="202.29" fill="#808080"></circle>
        <circle r="5" cx="1547.61" cy="368.31" fill="#808080"></circle>
        <circle r="5" cx="1557.98" cy="559.1" fill="#808080"></circle>
        <circle r="5" cx="1556.59" cy="653.75" fill="#808080"></circle>
        <circle r="5" cx="1540.48" cy="827.46" fill="#808080"></circle>
    </g>
    <defs>
        <mask id="SvgjsMask3187">
            <rect width="1460" height="750" fill="#ffffff"></rect>
        </mask>
        <linearGradient x1="12.16%" y1="-23.67%" x2="87.84%" y2="123.67%" gradientUnits="userSpaceOnUse" id="SvgjsLinearGradient3188">
            <stop stop-color="rgba(14, 42, 71, 1)" offset="0.08"></stop>
            <stop stop-color="rgba(62, 118, 255, 1)" offset="0.43"></stop>
        </linearGradient>
        <radialGradient id="SvgjsRadialGradient3189">
            <stop stop-color="#ffffff" offset="0.1"></stop>
            <stop stop-color="rgba(0, 0, 0, 1)" offset="0.2"></stop>
            <stop stop-color="rgba(0, 0, 0, 0)" offset="1"></stop>
        </radialGradient>
    </defs>
</svg>