<?xml version="1.0" standalone="no"?>
<!DOCTYPE svg PUBLIC "-//W3C//DTD SVG 20010904//EN"
 "http://www.w3.org/TR/2001/REC-SVG-20010904/DTD/svg10.dtd">
<svg version="1.0" xmlns="http://www.w3.org/2000/svg"
 width="1200.000000pt" height="1200.000000pt" viewBox="0 0 1200.000000 1200.000000"
 preserveAspectRatio="xMidYMid meet">

<g transform="translate(0.000000,1200.000000) scale(0.100000,-0.100000)"
fill="#000000" stroke="none">
<path d="M2540 11190 l0 -810 270 0 270 0 0 270 0 270 250 0 250 0 0 -270 0
-270 268 2 267 3 3 808 2 807 -270 0 -270 0 0 -265 0 -265 -250 0 -250 0 0
265 0 265 -270 0 -270 0 0 -810z"/>
<path d="M4350 11730 l0 -270 240 0 240 0 0 -540 0 -540 270 0 270 0 0 540 0
540 238 2 237 3 3 268 2 267 -750 0 -750 0 0 -270z"/>
<path d="M6080 11190 l0 -810 265 0 265 0 2 400 3 400 185 -285 c101 -157 187
-285 190 -285 3 0 88 129 190 287 l185 286 3 -402 2 -401 268 2 267 3 3 808 2
807 -286 -2 -286 -3 -125 -205 c-69 -113 -146 -240 -172 -282 l-48 -78 -173
285 -173 285 -283 0 -284 0 0 -810z"/>
<path d="M8170 11190 l0 -810 653 2 652 3 0 265 0 265 -382 3 -383 2 0 540 0
540 -270 0 -270 0 0 -810z"/>
<path d="M1754 9608 c3 -18 177 -1968 387 -4333 210 -2365 385 -4303 388
-4307 6 -7 3434 -959 3461 -961 16 -1 3464 953 3478 962 4 3 180 1943 391
4311 210 2368 385 4317 387 4333 l6 27 -4252 0 -4251 0 5 -32z m6910 -1780
c-5 -46 -94 -1004 -94 -1019 0 -5 -817 -9 -2035 -9 -1119 0 -2035 -3 -2035 -7
0 -23 92 -1032 96 -1050 l4 -23 1935 0 c1924 0 1935 0 1935 -20 0 -31 -290
-3253 -293 -3256 -5 -5 -2169 -604 -2183 -604 -21 0 -2168 600 -2176 608 -4 4
-38 365 -77 802 -39 437 -73 812 -76 833 l-5 37 540 0 c425 0 540 -3 540 -12
0 -28 72 -833 75 -836 7 -7 1161 -314 1180 -314 18 0 1175 309 1181 315 3 3
124 1331 124 1360 0 16 -122 17 -1842 19 l-1843 3 -142 1565 c-78 861 -142
1584 -142 1608 l-1 42 2670 0 2670 0 -6 -42z"/>
</g>
</svg>
