<?xml version="1.0" standalone="no"?>
<!DOCTYPE svg PUBLIC "-//W3C//DTD SVG 20010904//EN"
 "http://www.w3.org/TR/2001/REC-SVG-20010904/DTD/svg10.dtd">
<svg version="1.0" xmlns="http://www.w3.org/2000/svg"
 width="199.000000pt" height="253.000000pt" viewBox="0 0 199.000000 253.000000"
 preserveAspectRatio="xMidYMid meet">

<g transform="translate(0.000000,253.000000) scale(0.100000,-0.100000)"
fill="#000000" stroke="none">
<path d="M838 2508 c-1 -13 -2 -63 -2 -113 l-1 -90 -77 -3 -78 -3 0 -49 0 -50
130 0 130 0 0 165 0 165 -50 0 c-45 0 -50 -2 -52 -22z"/>
<path d="M1000 2494 c0 -32 11 -48 75 -119 41 -46 75 -86 75 -89 0 -3 -34 -6
-75 -6 l-75 0 0 -40 0 -40 155 0 155 0 0 36 c0 31 -11 48 -76 120 l-76 84 76
0 76 0 0 45 0 45 -155 0 -155 0 0 -36z"/>
</g>
</svg>
